<svg version="1.1" viewBox="0.0 0.0 869.2913385826772 226.77165354330708" fill="none" stroke="none" stroke-linecap="square" stroke-miterlimit="10" xmlns:xlink="http://www.w3.org/1999/xlink" xmlns="http://www.w3.org/2000/svg"><clipPath id="p.0"><path d="m0 0l869.2913 0l0 226.77165l-869.2913 0l0 -226.77165z" clip-rule="nonzero"/></clipPath><g clip-path="url(#p.0)"><path fill="#000000" fill-opacity="0.0" d="m0 0l869.2913 0l0 226.77165l-869.2913 0z" fill-rule="evenodd"/><path fill="#000000" fill-opacity="0.0" d="m8.545886 -19.624672l846.2047 0l0 137.76378l-846.2047 0z" fill-rule="evenodd"/><path fill="#39cccc" d="m186.68651 31.172203q-2.34375 0 -4.390625 -0.28125q-2.046875 -0.296875 -4.390625 0.09375q-0.203125 -1.765625 0.375 -1.765625q0.59375 0 0.984375 -0.390625q6.0625 -1.359375 11.8125 -0.1875q5.765625 1.171875 10.453125 3.515625q0.203125 0.78125 0.875 1.171875q0.6875 0.390625 1.078125 0.96875q0.984375 0.984375 1.65625 2.453125q0.6875 1.453125 1.46875 2.625q0.390625 0.78125 0.96875 1.28125q0.59375 0.484375 0.203125 1.453125q-1.171875 0.59375 -2.15625 0.015625q-0.96875 -0.59375 -1.953125 -1.5625q-0.96875 -0.984375 -1.84375 -1.859375q-0.875 -0.890625 -2.046875 -0.890625q-0.203125 -0.78125 -1.375 -1.953125q-1.359375 -0.96875 -2.25 -1.265625q-0.875 -0.296875 -1.65625 -0.6875q-0.578125 -0.390625 -1.078125 -0.671875q-0.484375 -0.296875 -0.875 -0.5q-0.78125 -0.390625 -1.46875 -0.28125q-0.671875 0.09375 -1.65625 -0.296875q-0.578125 -0.390625 -1.171875 -0.578125q-0.578125 -0.203125 -1.5625 -0.40625zm22.859375 55.46875q0.390625 1.375 1.5625 1.96875q1.171875 0.578125 2.140625 1.75q2.546875 3.125 0.59375 6.4375q-0.984375 2.9375 -1.28125 5.765625q-0.28125 2.828125 -1.453125 5.5625q-0.984375 2.15625 -2.546875 4.015625q-1.5625 1.84375 -2.34375 4.0q-1.75 0.96875 -2.34375 3.3125q-0.96875 0.984375 -1.859375 1.46875q-0.875 0.484375 -2.234375 1.265625q-0.59375 0.390625 -1.078125 0.6875q-0.484375 0.296875 -1.078125 0.484375q-0.96875 0.390625 -1.75 0.203125q-0.78125 -0.203125 -1.765625 0.1875q-0.578125 0 -1.359375 0.59375q-0.78125 0.578125 -1.171875 0.96875q-0.984375 0.984375 -1.765625 2.546875q-0.78125 1.5625076 -2.34375 2.1406326q-2.734375 0.59375 -5.28125 0.984375q-2.53125 0.390625 -5.84375 0.578125q-1.765625 0 -4.109375 0.109375q-2.34375 0.09375 -4.484375 0.484375q-5.078125 0 -9.1875 0.390625q-4.09375 0.390625 -8.59375 0.578125q-2.921875 0.203125 -5.46875 0.296875q-2.53125 0.09375 -5.46875 0.6875q-0.578125 0.1875 -1.171875 0.390625q-0.578125 0.1875 -0.96875 0.1875q-1.5625 0.203125 -3.125 0.109375q-1.5625 -0.109375 -3.125 -0.109375q-1.171875 0 -2.0625 -0.28125q-0.875 -0.296875 -1.84375 -0.296875q-0.984375 0 -2.15625 0.203125q-1.171875 0.1875 -2.34375 0.375q-0.96875 0 -2.046875 -0.09375q-1.078125 -0.09375 -2.046875 -0.296875q-1.765625 -0.1875 -3.71875 0.109375q-1.953125 0.28125 -3.703125 -0.109375q-1.5625 0 -2.640625 0.296875q-1.078125 0.296875 -2.25 0.09375q-1.5625 3.71875 -1.5625 6.0625q0 2.34375 -0.96875 4.09375q0.1875 0.984375 0.96875 1.078125q0.78125 0.09375 1.375 0.875q0.390625 0.984375 0.1875 2.0625q-0.1875 1.0625 0 2.234375q0.203125 0.78125 0.296875 1.5625q0.09375 0.78125 0.09375 1.765625q0.203125 5.078125 0.59375 10.25q0.390625 5.171875 0.578125 9.28125q0 1.359375 -0.484375 2.25q-0.484375 0.875 -1.171875 1.5625q-0.6875 0.671875 -1.46875 1.359375q-0.78125 0.6875 -0.96875 1.859375q-1.171875 0.984375 -2.453125 2.046875q-1.265625 1.078125 -2.828125 1.46875q-1.5625 0.390625 -3.21875 0.296875q-1.65625 -0.09375 -3.21875 -0.09375q-1.953125 0 -4.015625 0.1875q-2.046875 0.203125 -4.1875 0.203125q-1.171875 0 -2.546875 -0.296875q-1.359375 -0.296875 -2.53125 -0.296875q-2.15625 0.203125 -4.109375 0.203125q-1.953125 0 -4.09375 -0.59375q-0.78125 -0.78125 -1.5625 -1.078125q-0.78125 -0.28125 -1.375 -0.875q-0.96875 -0.78125 -1.953125 -1.5625q-0.96875 -0.78125 -2.7343712 -1.171875q-1.171875 0 -2.34375 0.203125q-1.171875 0.1875 -2.140625 0.578125q-2.546875 0.390625 -3.421875 0.890625q-0.875 0.484375 -1.859375 0.875q-1.5625 0.78125 -2.734375 1.75q-1.171875 0.984375 -3.515625 1.375q-0.96875 0.1875 -2.828125 -0.59375q-1.859375 -0.78125 -2.4375 -1.5625q-0.984375 -0.96875 -1.1875 -3.015625q-0.1875 -2.0625 -0.578125 -4.21875q-0.390625 -1.359375 -0.59375 -2.53125q-0.1875 -1.171875 -0.578125 -2.15625q-0.1875 -1.359375 0.203125 -2.625q0.390625 -1.28125 0.578125 -2.25q0 -1.765625 0 -3.8125q0 -2.046875 -0.390625 -4.0q0 -0.984375 -0.390625 -1.859375q-0.390625 -0.875 -0.390625 -1.859375q0 -0.578125 0.09375 -1.265625q0.109375 -0.6875 0.109375 -1.46875q0 -1.5625 -0.390625 -3.21875q-0.390625 -1.65625 -0.203125 -3.03125q0.203125 -1.5625 1.265625 -2.53125q1.078125 -0.984375 1.46875 -1.953125q0.203125 -0.78125 0.203125 -1.953125q0 -1.171875 0 -2.15625q0 -4.484375 -2.15625 -7.03125q-0.390625 -0.390625 -0.78125 -0.671875q-0.390625 -0.296875 -0.78125 -0.890625q-0.96875 -1.7500076 -0.390625 -4.0937576q0.59375 -2.34375 0.78125 -3.90625q0.203125 -1.5625 0.203125 -3.03125q0 -1.46875 0.578125 -2.4375q0.78125 -0.984375 1.5625 -1.65625q0.78125 -0.6875 0.78125 -1.671875q0 -1.5625 -1.171875 -2.234375q-1.171875 -0.6875 -1.5625 -1.671875q-0.578125 -1.171875 -0.578125 -2.734375q0 -1.5625 0 -3.703125q-0.203125 -3.328125 -0.5 -6.9375q-0.28125 -3.609375 -0.28125 -6.546875q0 -6.046875 -0.203125 -11.90625q-0.1875 -5.859375 -1.171875 -10.75q0.59375 -5.078125 -0.296875 -9.765625q-0.875 -4.6875 -0.09375 -9.953125q0.390625 -0.59375 1.171875 -2.15625q1.375 -0.578125 2.640625 -1.546875q1.265625 -0.984375 3.421875 -1.375q5.078125 0.1875 8.09375 0q3.03125 -0.203125 5.765625 0.390625q0.59375 0.578125 0.78125 1.171875q0.203125 0.578125 0.78125 0.96875q0.78125 0.59375 3.125 1.1875q2.34375 0.578125 3.9062462 0.1875q1.375 -0.390625 2.546875 -1.359375q1.171875 -0.984375 2.140625 -1.375q2.34375 -0.59375 3.03125 -0.875q0.6875 -0.296875 1.265625 -0.6875q1.171875 -0.390625 2.4375 -0.390625q1.28125 0 2.640625 -0.203125q0.78125 -0.1875 2.734375 -0.578125q1.5625 0 2.921875 0.09375q1.375 0.09375 2.75 -0.09375q0.96875 -0.203125 2.4375 -0.09375q1.46875 0.09375 2.640625 -0.109375q0.578125 -0.1875 1.0625 -0.375q0.5 -0.203125 1.078125 -0.203125q2.34375 -0.203125 4.59375 0.09375q2.25 0.296875 4.390625 0.09375q0.984375 0 2.15625 0.109375q1.171875 0.09375 2.140625 0.09375q3.90625 -0.203125 8.203125 -0.875q4.296875 -0.6875 8.203125 -0.6875q3.515625 0 6.734375 0.09375q3.234375 0.09375 6.359375 -0.484375q0.578125 -0.203125 2.140625 -0.59375q1.5625 -0.390625 3.03125 -0.390625q1.46875 0 3.03125 -0.390625q0.390625 -0.1875 1.0625 -0.09375q0.6875 0.09375 1.671875 0.09375q1.171875 -0.1875 3.21875 -0.1875q2.046875 0 3.21875 0.390625q0.78125 0.390625 1.359375 0.875q0.59375 0.484375 1.1875 0.875q0.96875 0.59375 3.40625 1.1875q2.453125 0.578125 3.8125 0.1875q1.375 -0.390625 2.25 -1.359375q0.875 -0.984375 2.25 -1.375q1.359375 -0.390625 2.234375 0q0.890625 0.390625 1.859375 -0.59375q1.953125 0.59375 3.90625 0.6875q1.953125 0.09375 4.109375 -0.09375q1.5625 0 3.40625 0.296875q1.859375 0.28125 3.421875 0.671875q1.765625 0.390625 3.21875 0.78125q1.46875 0.390625 2.640625 0.984375q0.78125 0.390625 1.359375 0.984375q0.59375 0.578125 1.578125 0.765625q1.171875 1.765625 2.625 3.140625q1.46875 1.359375 3.03125 2.71875q0.984375 2.34375 2.15625 4.5q1.171875 2.140625 3.3125 3.90625q0.390625 0.96875 0.78125 2.046875q0.390625 1.078125 1.171875 1.65625q0.59375 3.90625 2.15625 7.53125q1.5625 3.609375 1.171875 7.90625q-0.203125 0.96875 -0.40625 1.953125q-0.1875 0.96875 0.203125 2.140625q-0.96875 1.171875 -0.96875 3.234375q0 2.046875 -0.390625 3.796875q-0.78125 0.203125 -0.984375 0.890625q-0.1875 0.671875 -0.1875 1.0625zm-164.65625 -16.203125q0.984375 -0.390625 1.171875 -1.5625q0.203125 -1.171875 0.78125 -1.953125q-2.140625 -0.984375 -2.53125 -0.78125q-0.390625 0.1875 -0.78125 -0.203125q-0.78125 0.59375 -0.984375 1.46875q-0.1875 0.875 -0.09375 1.765625q0.09375 0.875 0.78125 1.265625q0.6875 0.390625 1.65625 0zm5.671875 -18.5625q0.1875 -0.96875 0.375 -1.75q0.203125 -0.78125 -0.1875 -1.375q-0.390625 -0.578125 -1.65625 -1.15625q-1.265625 -0.59375 -1.859375 -0.59375q-0.578125 0 -1.953125 0.390625q-1.359375 0.390625 -1.75 0.78125q-1.171875 0.578125 -1.46875 1.65625q-0.296875 1.078125 -0.109375 2.453125q0.203125 1.359375 0.5 2.828125q0.296875 1.453125 0.09375 2.828125q0.59375 0.390625 0.875 0.984375q0.296875 0.578125 1.078125 0.578125q0.78125 0 1.171875 -0.484375q0.390625 -0.5 0.6875 -1.375q0.296875 -0.875 0.484375 -1.75q0.203125 -0.890625 0.78125 -1.46875q0.984375 -0.984375 1.765625 -1.265625q0.78125 -0.296875 1.171875 -1.28125zm29.874996 126.56251q1.5625 0 2.140625 -1.171875q0.59375 -1.171875 0.40625 -2.53125q-0.984375 -0.78125 -1.671875 -0.390625q-0.671875 0.390625 -1.65625 0.78125q-0.390625 0.78125 -0.296875 1.859375q0.109375 1.0625 1.078125 1.453125zm76.375 -91.98438q-0.984375 0 -1.671875 1.078125q-0.671875 1.0625 -0.484375 2.046875q0.984375 0.390625 2.15625 0q1.171875 -0.390625 1.171875 -1.375l-1.171875 -1.75zm-57.234375 88.46876q1.171875 -1.359375 0.875 -3.890625q-0.28125 -2.546875 -0.875 -4.5q-1.359375 -0.59375 -2.140625 -0.6875q-0.78125 -0.09375 -1.765625 1.078125q-0.578125 0.78125 -0.578125 1.953125q0 1.171875 0.1875 2.53125q-0.578125 0.78125 -1.078125 1.671875q-0.484375 0.875 -1.453125 1.265625q-0.78125 0.390625 -1.5625 0.390625q-0.78125 0 -1.171875 0.390625q-0.984375 0.96875 -0.296875 2.046875q0.6875 1.078125 1.65625 1.265625q0.984375 0.203125 2.046875 -0.1875q1.078125 -0.390625 1.859375 -0.78125q2.546875 -0.78125 3.03125 -1.5625q0.484375 -0.78125 1.265625 -0.984375zm45.515625 -74.79688q2.140625 -2.15625 1.75 -5.671875q-0.390625 -3.515625 0 -6.828125q0.203125 -0.984375 0.203125 -2.15625q0 -1.171875 0.1875 -2.140625q0.203125 -1.765625 0.78125 -3.609375q0.59375 -1.859375 0.390625 -3.421875q0 -0.984375 -0.59375 -2.4375q-0.578125 -1.46875 -0.96875 -2.453125q-0.96875 -1.5625 -2.53125 -3.40625q-1.5625 -1.859375 -3.328125 -2.640625q-1.5625 -0.78125 -4.109375 -0.578125q-2.53125 0.1875 -4.875 -0.015625q-4.09375 -0.390625 -6.734375 -0.1875q-2.640625 0.1875 -5.375 0.578125q-2.734375 0.390625 -5.5625 0.890625q-2.828125 0.484375 -4.984375 0.484375q-0.578125 0 -1.171875 -0.09375q-0.578125 -0.109375 -1.171875 -0.109375q-1.171875 0.203125 -2.25 0.59375q-1.0625 0.390625 -2.4375 0.390625q-0.78125 1.5625 -0.390625 3.421875q0.390625 1.84375 0.390625 3.40625q0.203125 2.734375 0.203125 5.46875q0 2.734375 0.390625 5.46875q0 1.375 0 2.546875q0 1.171875 0.390625 1.953125q0.390625 2.34375 -0.296875 2.4375q-0.6875 0.09375 -1.265625 0.6875q-0.390625 0.390625 -0.984375 2.25q-0.578125 1.84375 0 3.015625q1.765625 2.15625 1.765625 3.140625q0 0.96875 -0.109375 2.046875q-0.09375 1.0625 -0.09375 2.140625q0 1.078125 0.390625 2.25q5.671875 -0.203125 10.9375 -0.296875q5.28125 -0.09375 10.9375 -0.484375q1.171875 0 1.953125 -0.296875q0.78125 -0.296875 1.765625 -0.296875q1.5625 0 3.21875 0q1.65625 0 3.03125 -0.390625q2.734375 -0.578125 5.859375 -2.234375q3.125 -1.671875 4.6875 -3.421875zm13.078125 7.421875q0.59375 -0.390625 1.078125 -2.734375q0.484375 -2.34375 0.296875 -4.109375q-0.203125 -1.953125 -0.984375 -3.125q-0.78125 -1.171875 -2.734375 -0.78125q-0.390625 1.375 -0.6875 2.546875q-0.28125 1.171875 -0.28125 2.53125q-0.203125 3.515625 -2.75 4.6875q-2.53125 1.171875 -4.09375 2.15625q1.953125 2.921875 3.90625 1.859375q1.953125 -1.078125 3.328125 -1.671875q0.78125 -0.390625 1.5625 -0.578125q0.78125 -0.203125 1.359375 -0.78125zm30.671875 -55.859375q2.53125 -1.171875 1.171875 -4.296875q-0.390625 -0.59375 -1.078125 -0.984375q-0.6875 -0.390625 -0.875 -1.171875q-2.546875 -1.953125 -5.765625 -1.84375q-3.21875 0.09375 -4.203125 2.234375q0.203125 0.78125 0.390625 1.46875q0.203125 0.6875 0.78125 1.078125q0.984375 -0.203125 1.46875 -0.09375q0.484375 0.09375 1.46875 0.09375q0.390625 0.578125 1.0625 0.96875q0.6875 0.390625 1.28125 0.984375q0.390625 0.390625 0.671875 0.875q0.296875 0.484375 0.890625 0.6875q1.171875 0.390625 2.734375 0zm15.625 49.40625q1.359375 -3.3125 0.390625 -6.640625q-0.390625 -0.578125 -1.375 -0.671875q-0.96875 -0.109375 -1.5625 0.484375q-0.78125 0.578125 -1.46875 3.03125q-0.671875 2.4375 -0.875 3.40625q0 0.59375 0.390625 1.671875q0.390625 1.0625 0.78125 1.453125q1.375 1.375 2.34375 -0.09375q0.984375 -1.46875 1.375 -2.640625zm-175.39062 -23.4375q0.96875 1.765625 0.96875 4.59375q0 2.828125 -2.140625 3.03125q-0.984375 0 -1.375 -0.484375q-0.390625 -0.5 -1.359375 -0.6875q-0.984375 -1.5625 -0.796875 -3.609375q0.203125 -2.0625 0.984375 -3.625q0.390625 -2.734375 0.1875 -5.359375q-0.1875 -2.640625 -0.375 -5.375q0 -1.375 0.09375 -2.828125q0.09375 -1.46875 -0.6875 -2.453125q0.78125 -2.140625 0.390625 -4.671875q-0.390625 -2.546875 -0.875 -4.984375q-0.484375 -2.453125 -0.59375 -4.890625q-0.09375 -2.4375 1.28125 -4.59375q0.78125 -0.578125 2.046875 -0.96875q1.265625 -0.390625 1.859375 0.390625q-0.984375 1.171875 -0.890625 1.46875q0.109375 0.28125 -0.09375 0.484375q-0.578125 1.75 -0.390625 2.25q0.203125 0.484375 0.390625 1.0625q0.390625 1.171875 0.390625 2.546875q0 1.359375 0.390625 2.34375q-0.1875 4.484375 0 8.984375q0.390625 4.296875 0.578125 8.6875q0.203125 4.390625 0.015625 8.6875zm185.34375 -28.90625q0.390625 1.171875 0.09375 2.9375q-0.28125 1.75 -1.84375 1.5625q-1.171875 -0.203125 -2.25 -2.34375q-1.078125 -2.15625 -1.46875 -3.71875q-0.1875 -0.78125 -0.484375 -1.359375q-0.296875 -0.59375 0.296875 -0.984375q0.96875 -0.1875 3.109375 1.28125q2.15625 1.453125 2.546875 2.625zm-96.484375 19.734375q1.171875 3.125 -0.984375 3.515625q-2.140625 0.390625 -3.703125 0q-1.5625 -0.78125 -1.359375 -1.765625q0.1875 -0.96875 1.359375 -1.265625q1.171875 -0.296875 2.34375 -0.484375q0.59375 0 1.265625 -0.09375q0.6875 -0.109375 1.078125 0.09375zm19.34375 0.1875q2.34375 1.5625 3.90625 4.6875q1.5625 3.125 0 6.84375q-0.984375 0.1875 -1.28125 -0.09375q-0.28125 -0.296875 -0.875 -0.5q-0.96875 -1.171875 -1.359375 -2.4375q-0.390625 -1.265625 -1.375 -2.25q-0.96875 -0.78125 -2.046875 -1.265625q-1.078125 -0.484375 -1.46875 -1.859375q-0.96875 -0.578125 -1.859375 -0.28125q-0.875 0.28125 -2.234375 0.484375q-0.78125 0 -1.46875 -0.1875q-0.6875 -0.203125 -1.46875 -0.203125q-2.34375 0.1875 -2.34375 0q0 -0.203125 -0.390625 -0.203125q-0.578125 -1.171875 1.265625 -2.234375q1.859375 -1.078125 3.421875 -1.078125q2.734375 0.578125 3.8125 0.1875q1.078125 -0.390625 2.046875 -0.1875q0.984375 0 1.953125 0.09375q0.984375 0.09375 1.765625 0.484375zm73.4375 49.421875q1.171875 0 1.453125 1.171875q0.296875 1.171875 0.6875 1.953125q-0.390625 0.78125 -0.78125 1.375q-0.390625 0.578125 -1.359375 0.578125q-1.765625 -0.203125 -1.671875 -2.546875q0.109375 -2.34375 1.671875 -2.53125zm-5.859375 6.25q0.578125 -0.390625 1.265625 0.296875q0.6875 0.671875 1.078125 1.0625q-0.390625 0.78125 -0.6875 1.5625q-0.296875 0.7812576 -0.6875 1.3750076q-3.3125 4.296875 -8.984375 6.046875q-1.171875 0.390625 -2.25 0.984375q-1.0625 0.578125 -2.046875 0.96875q-1.75 0.59375 -3.8125 0.890625q-2.046875 0.28125 -3.609375 0.875q-0.78125 0.390625 -1.65625 0.484375q-0.875 0.09375 -1.65625 0.296875q-4.109375 0.78125 -8.796875 1.265625q-4.6875 0.484375 -8.0 -1.078125q0 -0.78125 -0.296875 -1.453125q-0.296875 -0.6875 0.09375 -1.078125q1.5625 0.390625 3.3125 -0.296875q1.765625 -0.6875 3.328125 0.296875q3.71875 -1.171875 7.71875 -1.265625q4.0 -0.109375 7.328125 -1.859375q3.703125 -0.203125 6.34375 -2.046875q2.640625 -1.859375 4.984375 -3.8125076q3.90625 -0.984375 4.875 -1.859375q0.984375 -0.875 2.15625 -1.65625zm-151.76562 62.703133q2.546875 -0.984375 5.375 -0.984375q2.828125 0 3.21875 3.125q-0.390625 0.984375 -1.171875 0.78125q-0.78125 -0.1875 -1.359375 0q-0.984375 0.203125 -1.46875 0.390625q-0.484375 0.203125 -1.46875 0.390625q-2.140625 0.390625 -4.296875 1.078125q-2.140625 0.6875 -4.09375 0.875q-1.5625 0 -2.9375 -0.09375q-1.359375 -0.09375 -2.921875 0.296875q-0.78125 0 -1.46875 0.28125q-0.6875 0.296875 -1.265625 0.296875q-0.984375 -0.1875 -1.859375 -0.6875q-0.875 -0.484375 -1.859375 -0.28125q-1.359375 -1.5625 -3.03125 -2.546875q-1.6562519 -0.96875 -1.6562519 -3.3125q-0.1875 -2.34375 0.78125 -4.59375q0.9843769 -2.25 0.390625 -4.59375q1.5625019 -0.78125 2.156252 0q0 1.75 0.28125 3.03125q0.296875 1.265625 0.6875 2.828125q0.203125 0.78125 0.296875 1.65625q0.09375 0.890625 0.296875 1.28125q0.390625 1.171875 2.234375 2.34375q1.859375 1.171875 3.234375 1.359375q1.171875 0.390625 3.21875 0.296875q2.046875 -0.09375 3.21875 -0.484375q1.375 -0.390625 2.734375 -1.28125q1.375 -0.875 2.734375 -1.453125zm55.67187 -5.875q2.140625 0.796875 2.234375 2.546875q0.109375 1.765625 -0.875 2.734375q-0.96875 0.78125 -2.34375 0.78125q-1.359375 0 -2.53125 -0.390625q-0.78125 -0.96875 0.28125 -1.65625q1.078125 -0.6875 1.46875 -1.265625q0.78125 -0.78125 1.078125 -1.46875q0.296875 -0.6875 0.6875 -1.28125z" fill-rule="nonzero"/><path fill="#7fdbff" d="m248.9912 46.609703q-0.96875 -0.203125 -2.046875 -0.09375q-1.078125 0.09375 -1.953125 0q-0.875 -0.109375 -1.46875 -0.6875q-0.578125 -0.59375 -0.390625 -2.15625q1.375 -1.171875 2.546875 -1.171875q1.171875 0 2.140625 -0.1875q2.15625 0.578125 2.734375 2.53125q-0.578125 1.375 -1.5625 1.765625zm-11.71875 -0.203125q-1.953125 -0.578125 -3.71875 -0.09375q-1.75 0.484375 -3.5 1.265625q-0.390625 0.390625 -0.6875 1.171875q-0.296875 0.78125 -0.6875 1.5625q-0.1875 0.984375 -0.484375 1.859375q-0.296875 0.875 -0.296875 1.65625q-0.1875 0.984375 -0.09375 1.96875q0.09375 0.96875 -0.875 1.359375q-3.90625 -1.765625 -2.9375 -5.671875q0 -0.578125 0.296875 -1.265625q0.296875 -0.6875 0.296875 -1.46875q0.1875 -1.5625 0.28125 -2.734375q0.109375 -1.171875 1.078125 -1.953125q0.984375 -0.96875 2.25 -0.875q1.265625 0.09375 2.640625 0.09375q3.125 -0.78125 4.1875 0q1.078125 0.78125 2.453125 0.78125q0.1875 1.953125 -0.203125 2.34375zm71.875015 109.18751q-0.1875 1.171875 0.203125 2.15625q0.390625 0.96875 0.390625 1.9375q0 1.765625 -0.59375 3.234375q-0.578125 1.453125 -0.96875 2.625q-0.59375 0.390625 -1.1875 0.59375q-0.578125 0.1875 -0.765625 0.96875q-1.765625 0.203125 -3.328125 0.78125q-2.34375 -0.390625 -4.296875 -0.28125q-1.953125 0.09375 -4.09375 -0.109375q-0.78125 0 -2.15625 -0.09375q-1.359375 -0.09375 -2.34375 -0.484375q-3.125 -1.375 -6.0625 -2.9375q-2.921875 -1.5625 -6.828125 -1.171875q-0.78125 0 -1.375 0.296875q-0.578125 0.296875 -1.359375 -0.09375q-1.5625 0.78125 -3.125 0.78125q-1.5625 0 -2.734375 0.78125q-2.53125 0.390625 -4.875 0.875q-2.34375 0.484375 -5.078125 0.296875q-1.171875 -0.203125 -2.34375 -0.09375q-1.1718903 0.09375 -2.1562653 0.09375q-1.359375 0 -2.734375 -0.1875q-1.359375 -0.203125 -2.921875 -0.40625q-2.15625 0 -3.125 -0.1875q-2.15625 -0.203125 -4.40625 -0.203125q-2.234375 0 -4.296875 -0.484375q-2.046875 -0.484375 -3.421875 -1.5625q-1.359375 -1.078125 -1.359375 -3.8125q0 -0.578125 0.296875 -1.15625q0.296875 -0.59375 0.296875 -1.1875q-0.390625 -2.140625 -0.984375 -4.390625q-0.578125 -2.25 0 -3.8125q1.375 -2.53125 1.5625 -3.40625q0.203125 -0.890625 1.171875 -1.671875q2.15625 -0.78125 4.390625 -1.171875q2.25 -0.390625 4.984375 -0.390625q0.390625 -0.78125 0.296875 -1.65625q-0.09375 -0.875 0.09375 -1.859375q0.59375 -0.390625 0.875 -1.0625q0.296875 -0.6875 1.28125 -0.890625q0.78125 -1.5625 1.265625 -2.828125q0.484375 -1.265625 0.09375 -2.828125q-0.390625 -1.171875 -1.375 -2.140625q-0.96875 -0.9843826 -0.96875 -2.5468826q0 -1.171875 0.390625 -2.640625q0.390625 -1.46875 0.59375 -3.03125q0 -2.34375 0.578125 -3.015625q0.59375 -0.6875 0.984375 -1.28125q0.390625 -2.140625 0.78125 -2.71875q0.390625 -0.59375 0.78125 -1.578125q0.390625 -1.75 0.671875 -3.21875q0.296875 -1.46875 0.296875 -3.609375q-0.1875 -0.78125 -0.09375 -1.65625q0.09375 -0.890625 -0.296875 -1.671875q-0.390625 -1.171875 -1.171875 -2.046875q-0.78125 -0.875 -1.171875 -1.859375q-0.390625 -1.5625 -0.6875 -3.125q-0.28125 -1.5625 -0.09375 -3.125q0 -1.75 0.09375 -3.796875q0.109375 -2.0625 0.109375 -4.203125q0.390625 -2.9375 0 -5.078125q-0.78125 -2.734375 -0.78125 -3.515625q0 -0.78125 -0.78125 -1.171875q-1.953125 0.390625 -4.109375 0.6875q-2.140625 0.28125 -4.09375 -0.296875q-1.375 -0.984375 -2.9375 -1.953125q-1.5625 -0.984375 -2.140625 -3.515625q-0.390625 -1.5625 0.09375 -3.421875q0.484375 -1.859375 0.6875 -3.8125q0.1875 -2.34375 -0.015625 -4.296875q-0.1875 -1.953125 0.203125 -3.703125q0.390625 -1.375 1.359375 -1.953125q0.984375 -0.59375 1.578125 -1.171875q3.125 -0.390625 6.34375 -0.484375q3.21875 -0.109375 6.34375 0.875q0.59375 1.75 2.546875 2.53125q1.953125 0.78125 3.515625 0.203125q0.578125 -0.203125 0.875 -0.6875q0.296875 -0.484375 0.68751526 -0.875q1.953125 -0.78125 3.796875 -0.390625q1.859375 0.390625 4.015625 0q2.734375 0.390625 5.46875 0.484375q2.734375 0.09375 5.46875 0.296875q0.96875 0 1.75 0.09375q0.78125 0.09375 1.765625 0.875q0.578125 3.71875 5.078125 3.71875q0.78125 0 1.265625 -0.296875q0.484375 -0.296875 1.265625 -0.6875l2.34375 0q2.734375 -0.390625 3.8125 0.109375q1.078125 0.484375 2.046875 0.484375q1.765625 0 3.328125 -0.78125q1.359375 -0.390625 2.234375 -1.078125q0.890625 -0.6875 1.859375 -1.078125q1.375 0.203125 3.03125 0.109375q1.65625 -0.109375 2.828125 0.09375q3.328125 0.390625 4.890625 1.359375q2.34375 1.375 1.5625 3.515625q0.390625 1.953125 0.578125 4.5q0.203125 2.53125 -0.09375 4.875q-0.296875 2.34375 -1.078125 4.296875q-0.78125 1.953125 -2.34375 2.734375q-0.96875 -0.390625 -1.859375 0.109375q-0.875 0.484375 -1.65625 0.671875q-1.75 0.390625 -3.609375 0.203125q-1.859375 -0.203125 -3.8125 0q-0.1875 1.359375 -0.484375 2.34375q-0.296875 0.96875 0.484375 1.75q-0.578125 3.125 -0.578125 5.578125q0 2.4375 -0.296875 4.6875q-0.296875 2.234375 -0.984375 4.1875q-0.671875 1.953125 -2.234375 3.125q-0.78125 2.15625 -0.78125 4.203125q0 2.046875 0.390625 4.0q0.390625 1.953125 0.78125 4.015625q0.390625 2.046875 0.578125 4.1875q0.203125 0.984375 -0.09375 1.96875q-0.296875 0.96875 -0.484375 1.9375q-0.390625 5.671875 0.1875 11.921883q0.59375 6.25 -0.78125 13.078125q2.15625 0.59375 4.0 0.5q1.859375 -0.109375 4.015625 0.671875q0.578125 0.390625 1.0625 0.6875q0.5 0.296875 1.078125 0.484375q1.375 0.59375 2.25 0.890625q0.875 0.28125 1.265625 1.84375q0.203125 0.390625 0.203125 1.171875q0 0.78125 0 1.5625q0.1875 1.5625 -0.109375 2.640625q-0.28125 1.078125 -0.484375 2.25zm-65.23439 2.34375q0.984375 -0.203125 1.859375 -0.875q0.875 -0.6875 0.875 -1.46875q-0.1875 -0.59375 -1.359375 -1.375q-1.171875 -0.78125 -2.15625 -1.171875q-0.96875 -0.390625 -1.359375 0q-0.390625 0.390625 -1.375 0.59375q-0.390625 0.96875 -0.6875 1.65625q-0.28125 0.6875 -0.28125 2.046875q2.140625 0.390625 2.921875 0.59375q0.78125 0.1875 1.5625 0zm8.984375 -78.32813q2.15625 0.203125 2.9375 -0.28125q0.78126526 -0.5 1.5625153 -1.078125q0.1875 -2.15625 1.15625 -4.296875q0.984375 -2.15625 0.796875 -4.296875q-0.203125 -1.5625 -0.984375 -2.4375q-0.78125 -0.890625 -1.359375 -1.859375q-2.5468903 -0.59375 -4.7031403 -1.375q-2.140625 -0.78125 -3.890625 1.375q0.390625 0.78125 1.0625 0.78125q0.6875 0 1.46875 0.390625q1.171875 0.578125 1.953125 2.734375q0.59375 1.359375 0.484375 2.53125q-0.09375 1.171875 -0.28125 2.34375q-0.203125 1.375 -0.015625 2.84375q0.203125 1.453125 -0.1875 2.625zm5.8593903 11.71875q0.203125 -1.359375 0.390625 -2.71875q0.203125 -1.375 -0.78125 -2.15625q-0.578125 -0.59375 -1.859375 -0.6875q-1.2656403 -0.09375 -1.8437653 0.296875q-0.59375 0.96875 -0.40625 1.953125q0.203125 0.96875 0.203125 2.140625q1.7656403 1.375 4.2968903 1.171875zm62.703125 -23.4375q-1.375 1.171875 -1.859375 -0.09375q-0.484375 -1.265625 -0.296875 -2.640625q0.59375 -0.78125 1.46875 -0.671875q0.875 0.09375 1.078125 1.0625q0.1875 0.59375 -0.203125 0.984375q-0.390625 0.390625 -0.1875 1.359375zm-0.203125 4.296875q0.78125 0.984375 0.78125 2.25q0 1.265625 -0.390625 2.640625q-0.390625 1.359375 -0.78125 2.640625q-0.390625 1.265625 -0.578125 2.234375q-0.390625 0.203125 -0.890625 0.5q-0.484375 0.28125 -1.265625 0.484375q-0.78125 0 -1.65625 -0.296875q-0.875 -0.296875 -1.859375 -0.296875q-2.140625 -0.578125 -2.25 -1.359375q-0.09375 -0.78125 -0.09375 -1.5625q3.328125 -0.59375 5.078125 -2.9375q0.59375 -0.96875 0.6875 -2.4375q0.09375 -1.46875 0.484375 -2.4375q0.78125 -0.59375 1.5625 -0.296875q0.78125 0.296875 1.171875 0.875zm-20.890625 64.26563q0 -2.734375 0.09375 -5.171875q0.09375 -2.453125 0.484375 -5.3750076q0.203125 -1.765625 0.203125 -3.328125q0 -1.5625 0.1875 -2.734375q0 -1.171875 0.78125 -2.53125q0.78125 -1.375 2.15625 -0.390625q0.1875 0.390625 0.1875 1.078125q0 0.671875 0.203125 1.0625q-0.390625 3.328125 -0.109375 7.4375q0.296875 4.0937576 1.28125 7.2187576q0.78125 0.78125 1.5625 1.46875q0.78125 0.671875 2.34375 0.875q0.96875 0.78125 0.671875 2.15625q-0.28125 1.359375 -1.265625 1.75q-2.140625 -0.59375 -4.296875 -0.984375q-2.140625 -0.390625 -3.703125 -1.359375l-0.78125 -1.171875zm-65.04689 31.640625q1.171875 -0.390625 3.703125 -0.09375q2.546875 0.28125 3.328125 1.84375q-4.296875 2.15625 -8.015625 2.546875q-3.703125 0.390625 -6.625 -0.984375q-2.734375 -1.171875 -2.640625 -3.515625q0.09375 -2.34375 0.296875 -4.296875q0.1875 -1.359375 0.1875 -3.015625q0 -1.671875 0.1875 -3.03125q0.203125 -1.375 0.78125 -2.25q0.59375 -0.875 1.96875 -0.875q0.96875 0.78125 1.0625 2.046875q0.109375 1.265625 0.296875 2.640625q0 1.359375 -0.296875 2.53125q-0.28125 1.171875 -0.28125 2.15625q0.1875 2.53125 1.75 3.3125q1.5625 0.78125 4.296875 0.984375z" fill-rule="nonzero"/><path fill="#2ecc40" d="m338.44434 68.6722q-0.578125 0.984375 -1.75 1.671875q-1.171875 0.671875 -2.34375 0.28125q-0.78125 -0.96875 -0.59375 -2.71875q0.203125 -1.765625 0.390625 -3.921875q0.390625 -3.125 -0.484375 -5.65625q-0.875 -2.546875 -0.296875 -4.296875q0.390625 -1.5625 1.75 -1.859375q1.375 -0.296875 2.546875 -1.078125q2.734375 0.390625 5.859375 0.109375q3.125 -0.296875 5.46875 0.671875q2.546875 0.203125 5.46875 -1.0625q2.9375 -1.28125 5.078125 -1.671875q1.171875 -0.1875 2.4375 1.1875q1.28125 1.359375 -0.28125 2.71875q-3.515625 1.5625 -7.53125 0.984375q-4.0 -0.59375 -7.90625 0.390625q-2.921875 0.1875 -4.09375 0.78125q-1.171875 0.578125 -2.734375 1.171875q-0.984375 0.578125 -0.796875 1.75q0.203125 1.171875 0.015625 2.734375q-0.203125 2.34375 -0.59375 4.203125q-0.390625 1.859375 0.390625 3.609375zm59.1875 -16.203125q-0.59375 -0.390625 -1.375 -0.6875q-0.78125 -0.296875 -0.78125 -1.265625q0 -0.984375 0.875 -0.875q0.890625 0.09375 1.859375 -0.109375q0.59375 0 1.078125 -0.28125q0.484375 -0.296875 1.078125 -0.5q2.734375 -0.1875 3.90625 -0.484375q1.171875 -0.296875 2.53125 0.6875q0.984375 0.78125 0.390625 1.953125q-0.578125 1.171875 -1.953125 1.75q-0.78125 0.203125 -1.953125 0.109375q-1.171875 -0.109375 -2.34375 0.09375q-0.578125 0 -1.171875 0.203125q-0.578125 0.1875 -0.96875 -0.015625l-1.171875 -0.578125zm82.609375 14.0625q1.171875 2.53125 1.65625 5.5625q0.5 3.03125 1.28125 5.765625q0.1875 0.96875 0.375 1.75q0.203125 0.78125 -0.1875 2.15625q-0.390625 1.75 -1.46875 3.421875q-1.0625 1.65625 -0.875 4.1875q0.390625 1.953125 1.078125 3.625q0.6875 1.65625 1.65625 3.21875q0 1.359375 0.390625 2.921875q0.390625 1.5625 -0.78125 2.34375q0.78125 0.984375 0.6875 2.25q-0.09375 1.265625 -1.078125 1.65625q-0.390625 1.375 -0.6875 2.640625q-0.28125 1.265625 -0.671875 2.828125q-1.171875 1.171875 -1.375 1.765625q-0.78125 1.953125 -1.75 3.125q-0.390625 0.78125 -0.984375 1.375q-0.578125 0.578125 -1.171875 1.359375q-1.171875 1.75 -2.921875 3.515625q-0.984375 0.578125 -2.0625 1.078125q-1.0625 0.484375 -2.046875 0.875q-0.578125 0.390625 -1.265625 0.78125q-0.6875 0.390625 -1.265625 0.78125q-2.34375 0.578125 -3.421875 0.875q-1.078125 0.296875 -2.046875 0.6875q-0.984375 0.390625 -1.671875 0.59375q-0.671875 0.1875 -1.453125 0.37500763q-1.953125 0.59375 -2.9375 0.203125q-0.96875 -0.39063263 -1.953125 -0.39063263q-3.3125 0.39063263 -4.984375 0.39063263q-1.65625 0 -3.21875 0q-4.6875 0.78125 -7.515625 0.78125q-2.828125 0 -6.15625 0.390625q-4.09375 0.390625 -8.203125 0.390625q-4.09375 0 -8.203125 0.390625q-3.703125 0.390625 -7.328125 0.484375q-3.609375 0.09375 -6.921875 0.6875q-0.390625 0.96875 -0.203125 2.4375q0.203125 1.46875 0.296875 2.9375q0.09375 1.453125 0 2.828125q-0.09375 1.359375 -0.6875 2.53125q-0.390625 0.390625 -0.875 0.6875q-0.484375 0.296875 -0.875 0.875q0.1875 1.765625 0.765625 2.9375q0.59375 1.171875 1.375 2.140625q0.390625 2.34375 0.484375 5.078125q0.109375 2.734375 0.109375 5.078125q0 2.15625 -0.5 3.71875q-0.484375 1.5625 -0.875 3.125q-0.96875 0.1875 -1.5625 0.875q-0.578125 0.6875 -1.359375 1.078125q-2.9375 0.390625 -4.109375 0.59375q-1.171875 0.1875 -2.53125 0.1875q-1.765625 -0.390625 -1.96875 -0.296875q-0.1875 0.09375 -0.578125 0.09375q-0.390625 0 -0.984375 -0.28125q-0.578125 -0.296875 -1.15625 -0.5q-2.15625 0.203125 -2.640625 0.015625q-0.484375 -0.203125 -1.078125 -0.40625q-1.171875 0 -2.25 0.109375q-1.0625 0.09375 -2.046875 0.28125q-2.734375 0.390625 -5.171875 1.953125q-2.4375 1.5625 -4.984375 1.765625q-1.359375 0 -2.828125 -0.1875q-1.46875 -0.203125 -2.828125 -0.203125q-1.953125 0 -2.34375 -0.296875q-0.390625 -0.296875 -0.78125 -0.484375q-0.984375 -0.390625 -2.0625 -0.296875q-1.0625 0.09375 -2.046875 -0.09375q-1.171875 -0.390625 -2.046875 -0.96875q-0.875 -0.59375 -1.859375 -0.796875q-0.390625 -0.390625 -0.78125 -0.875q-0.390625 -0.484375 -0.96875 -1.078125q-0.78125 -0.390625 -1.46875 -0.671875q-0.6875 -0.296875 -0.875 -0.6875q-0.390625 -0.984375 -0.5 -2.9375q-0.09375 -1.953125 -0.484375 -3.3125q-0.1875 -0.984375 -0.296875 -2.046875q-0.09375 -1.078125 -0.09375 -1.859375q-0.390625 -2.546875 0 -5.28125q0 -0.96875 0.96875 -1.9375q0.984375 -0.984375 1.375 -1.96875q0.203125 -0.390625 0.6875 -1.84375q0.484375 -1.46875 0.484375 -2.0625q0 -1.5625 -0.6875 -3.21875q-0.671875 -1.65625 -1.0625 -3.21875q-0.390625 -0.984375 -1.375 -2.34375q-0.96875 -1.375 -1.171875 -2.546875l0 -3.7031326q0 -5.859375 -0.296875 -12.109375q-0.28125 -6.25 0.109375 -12.5q-0.390625 -4.5 0.28125 -7.125q0.6875 -2.640625 1.078125 -5.578125q-0.578125 -1.75 0 -2.828125q0.59375 -1.078125 0.203125 -3.03125q-0.203125 -1.171875 -0.6875 -2.734375q-0.484375 -1.5625 -0.875 -2.34375q-0.984375 -2.53125 -0.6875 -3.5q0.296875 -0.984375 0.09375 -1.96875q-0.578125 -1.953125 -0.78125 -4.296875q-0.390625 -1.953125 -0.78125 -2.734375q0.390625 -1.5625 0.78125 -3.3125q0.390625 -1.765625 1.765625 -2.734375q1.359375 -0.984375 3.40625 -1.265625q2.0625 -0.296875 3.8125 -0.296875q1.5625 -0.203125 3.421875 -0.484375q1.859375 -0.296875 3.421875 -0.6875q1.5625 -0.390625 3.515625 -0.1875q1.953125 0.1875 4.09375 -0.203125q1.375 -0.203125 2.546875 -0.296875q1.171875 -0.09375 2.34375 -0.09375q1.359375 0 2.625 -0.296875q1.28125 -0.296875 2.25 -0.484375q1.5625 -0.203125 3.421875 0q1.859375 0.1875 3.8125 0q1.5625 -0.390625 2.53125 -0.390625q2.734375 -0.203125 6.046875 -0.484375q3.328125 -0.296875 6.0625 0.671875q1.953125 1.5625 4.875 1.765625q2.9375 0.1875 5.671875 -0.984375q2.15625 -1.359375 3.21875 -1.65625q1.078125 -0.296875 2.0625 -0.296875q0.96875 0 1.65625 0.203125q0.6875 0.1875 1.65625 0.1875q2.734375 0.203125 5.859375 -0.28125q3.125 -0.5 6.453125 -0.6875q1.5625 -0.203125 2.921875 -0.09375q1.375 0.09375 2.9375 -0.109375q1.953125 -0.96875 2.921875 -0.671875q0.984375 0.28125 1.953125 0.09375q2.34375 -0.390625 4.78125 -0.78125q2.453125 -0.390625 4.796875 -0.59375q1.171875 -0.1875 2.4375 0.015625q1.265625 0.1875 2.4375 -0.203125q2.15625 0.390625 4.390625 0.484375q2.25 0.09375 4.015625 1.078125q1.75 -0.59375 2.828125 0.09375q1.078125 0.6875 1.75 1.859375q0.6875 1.171875 1.375 2.4375q0.6875 1.265625 1.859375 1.859375q2.34375 0.390625 4.0 1.375q1.65625 0.96875 3.421875 1.9375q0.390625 1.171875 1.0625 2.25q0.6875 1.078125 1.078125 2.25zm-122.265625 96.09376q1.5625 -1.171875 1.171875 -3.703125q-0.390625 -2.546875 -2.140625 -2.9375q-0.78125 0.390625 -1.171875 0.203125q-0.390625 -0.203125 -0.984375 -0.40625q-0.78125 0.984375 -0.875 2.15625q-0.09375 1.171875 0.296875 2.25q0.390625 1.0625 1.265625 1.84375q0.875 0.78125 2.4375 0.59375zm-2.53125 -95.12501q0.390625 -0.78125 0.875 -1.359375q0.484375 -0.59375 -0.296875 -1.375q-2.34375 0.203125 -3.90625 0.984375q-1.5625 0.78125 -1.75 2.921875q-0.203125 1.5625 0.28125 2.9375q0.5 1.359375 0.890625 2.34375q2.34375 -1.375 3.3125 -3.71875q0.203125 -0.578125 0.203125 -1.265625q0 -0.6875 0.390625 -1.46875zm31.046875 34.375q2.15625 -0.390625 2.9375 -2.734375q0.78125 -2.34375 -1.375 -3.515625q-1.953125 -0.390625 -2.828125 0.109375q-0.875 0.484375 -1.375 1.65625q-0.484375 1.171875 -0.1875 2.546875q0.296875 1.359375 1.46875 1.75l1.359375 0.1875zm3.90625 -26.5625q1.171875 -2.140625 3.421875 -2.71875q2.25 -0.59375 4.390625 -2.15625q-0.78125 -1.5625 -2.046875 -1.953125q-1.265625 -0.390625 -2.734375 -0.1875q-1.46875 0.1875 -3.03125 0.78125q-1.5625 0.578125 -2.921875 0.765625q-1.765625 1.5625 -1.375 4.296875q0.390625 2.734375 0 5.078125q-0.1875 2.15625 -0.578125 4.703125q-0.390625 2.53125 0.1875 4.671875q1.765625 0 2.546875 -1.171875q0.390625 -2.140625 0.484375 -2.328125q0.09375 -0.203125 0.296875 -0.59375q-0.203125 -3.90625 0.09375 -5.859375q0.296875 -1.953125 1.265625 -3.328125zm44.53125 23.046875q0.203125 -2.140625 -0.578125 -4.484375q-0.78125 -2.34375 -1.171875 -4.296875q-0.59375 -2.9375 -0.5 -5.859375q0.109375 -2.9375 -1.84375 -4.6875q-1.5625 -1.5625 -4.015625 -2.34375q-2.4375 -0.78125 -5.359375 -0.390625q-1.375 -0.984375 -2.25 -2.25q-0.875 -1.265625 -3.03125 -0.875q-0.96875 0.1875 -1.859375 1.359375q-0.875 1.171875 -1.65625 1.375q-3.515625 0.578125 -5.171875 0.875q-1.65625 0.296875 -3.21875 0.6875q-0.984375 -0.59375 -2.84375 -0.296875q-1.84375 0.296875 -2.828125 0.6875q-1.171875 7.8125 -0.59375 15.140625q0.59375 7.3125 1.578125 13.953125q2.734375 -0.1875 4.875 -0.28125q2.15625 -0.109375 4.5 -0.109375q0.390625 0 1.265625 -0.28125q0.875 -0.296875 1.65625 -0.296875q1.765625 -0.390625 3.21875 -0.390625q1.46875 0 3.03125 0q1.171875 0 2.34375 0.09375q1.171875 0.09375 2.15625 -0.09375q3.125 -0.984375 4.6875 -1.078125q1.5625 -0.09375 2.53125 -1.265625q1.375 -2.546875 1.765625 -2.9375q0.390625 -0.390625 0.78125 -0.96875q0.78125 -0.390625 1.359375 -0.484375q0.59375 -0.109375 1.171875 -0.5zm35.75 10.359375q0.578125 -1.375 0.96875 -3.421875q0.390625 -2.046875 -0.1875 -3.609375q-1.5625 -0.59375 -2.84375 0.78125q-1.265625 1.359375 -1.453125 3.125q-0.203125 1.5625 -0.296875 1.953125q-0.09375 0.390625 -1.078125 1.359375q-2.140625 1.953125 -3.21875 2.34375q-1.078125 0.390625 -1.265625 0.984375q-0.390625 0.96875 0.484375 2.53125q0.875 1.5625 1.859375 1.5625q0.578125 0 1.15625 -0.484375q0.59375 -0.484375 1.1875 -0.09375q3.3125 -2.734375 4.6875 -7.03125zm1.171875 -13.875q1.359375 0.390625 2.046875 -1.0625q0.6875 -1.46875 -0.296875 -2.453125q-1.953125 -0.390625 -2.4375 1.46875q-0.484375 1.859375 0.6875 2.046875zm-45.125 -13.46875q1.375 0.96875 1.078125 2.640625q-0.296875 1.65625 -0.484375 3.21875q-2.34375 -1.765625 -4.40625 -2.828125q-2.046875 -1.078125 -4.1875 -0.109375q-2.34375 -0.578125 -4.796875 0.296875q-2.4375 0.875 -4.390625 -0.09375q-0.578125 -1.375 -0.1875 -2.15625q0.390625 -0.78125 1.453125 -1.171875q1.078125 -0.390625 2.34375 -0.578125q1.28125 -0.203125 2.453125 -0.203125q1.5625 0 3.015625 -0.1875q1.46875 -0.203125 2.640625 -0.59375q1.171875 -0.1875 2.25 0.40625q1.078125 0.578125 1.859375 0.96875l1.359375 0.390625zm-3.3125 54.296883q-0.203125 -1.5625 0.875 -2.4375q1.078125 -0.890625 2.53125 -0.984375q1.46875 -0.09375 2.734375 0.59375q1.28125 0.671875 1.28125 2.234375q-1.171875 1.375 -2.640625 1.375q-1.46875 0 -3.421875 0.390625l-1.359375 -1.171875zm-5.078125 -1.765625q-0.984375 2.34375 -1.96875 2.9375q-0.96875 0.578125 -1.9375 1.359375q-0.984375 0.984375 -2.453125 2.25q-1.453125 1.265625 -1.65625 2.828125q0.203125 2.15625 -0.09375 2.640625q-0.296875 0.484375 -0.296875 0.875q0.203125 0.78125 0.59375 1.5625q0.390625 0.78125 0.390625 1.765625q-0.203125 1.359375 -0.296875 2.734375q-0.09375 1.359375 -0.875 2.34375q-3.71875 -1.171875 -3.328125 -3.8125q0.390625 -2.640625 1.5625 -4.0q-0.390625 -2.546875 -1.171875 -3.125q-0.1875 -3.515625 0.296875 -5.953125q0.484375 -2.453125 3.03125 -3.625q1.75 -0.96875 4.0 -0.765625q2.25 0.1875 4.203125 -0.015625zm-63.09375 40.234375q0.59375 0 2.046875 0q1.46875 0 2.0625 0.59375q-0.390625 1.5625 -2.734375 2.25q-2.34375 0.671875 -4.5 1.0625q-1.5625 0.203125 -3.21875 0.109375q-1.65625 -0.109375 -1.859375 -2.0625q-1.359375 0 -2.25 -0.390625q-0.875 -0.390625 -1.84375 -0.78125q-0.59375 -2.140625 -1.46875 -4.578125q-0.875 -2.453125 -0.09375 -4.796875q1.171875 -0.390625 2.140625 0.390625q0.984375 0.78125 1.171875 1.171875q0.59375 0.984375 0.390625 2.0625q-0.1875 1.0625 0.203125 2.046875q0.78125 -0.203125 1.65625 -0.484375q0.875 -0.296875 1.65625 -1.078125q1.375 0.390625 0.984375 2.53125q1.953125 1.171875 3.21875 1.375q1.265625 0.1875 2.4375 0.578125z" fill-rule="nonzero"/><path fill="#ff851b" d="m503.4834 68.6722q-0.578125 0.984375 -1.75 1.671875q-1.171875 0.671875 -2.34375 0.28125q-0.78125 -0.96875 -0.59375 -2.71875q0.203125 -1.765625 0.390625 -3.921875q0.390625 -3.125 -0.484375 -5.65625q-0.875 -2.546875 -0.296875 -4.296875q0.390625 -1.5625 1.75 -1.859375q1.375 -0.296875 2.546875 -1.078125q2.734375 0.390625 5.859375 0.109375q3.125 -0.296875 5.46875 0.671875q2.546875 0.203125 5.46875 -1.0625q2.9375 -1.28125 5.078125 -1.671875q1.171875 -0.1875 2.4375 1.1875q1.28125 1.359375 -0.28125 2.71875q-3.515625 1.5625 -7.53125 0.984375q-4.0 -0.59375 -7.90625 0.390625q-2.921875 0.1875 -4.09375 0.78125q-1.171875 0.578125 -2.734375 1.171875q-0.984375 0.578125 -0.796875 1.75q0.203125 1.171875 0.015625 2.734375q-0.203125 2.34375 -0.59375 4.203125q-0.390625 1.859375 0.390625 3.609375zm59.1875 -16.203125q-0.59375 -0.390625 -1.375 -0.6875q-0.78125 -0.296875 -0.78125 -1.265625q0 -0.984375 0.875 -0.875q0.890625 0.09375 1.859375 -0.109375q0.59375 0 1.078125 -0.28125q0.484375 -0.296875 1.078125 -0.5q2.734375 -0.1875 3.90625 -0.484375q1.171875 -0.296875 2.53125 0.6875q0.984375 0.78125 0.390625 1.953125q-0.578125 1.171875 -1.953125 1.75q-0.78125 0.203125 -1.953125 0.109375q-1.171875 -0.109375 -2.34375 0.09375q-0.578125 0 -1.171875 0.203125q-0.578125 0.1875 -0.96875 -0.015625l-1.171875 -0.578125zm82.609375 14.0625q1.171875 2.53125 1.65625 5.5625q0.5 3.03125 1.28125 5.765625q0.1875 0.96875 0.375 1.75q0.203125 0.78125 -0.1875 2.15625q-0.390625 1.75 -1.46875 3.421875q-1.0625 1.65625 -0.875 4.1875q0.390625 1.953125 1.078125 3.625q0.6875 1.65625 1.65625 3.21875q0 1.359375 0.390625 2.921875q0.390625 1.5625 -0.78125 2.34375q0.78125 0.984375 0.6875 2.25q-0.09375 1.265625 -1.078125 1.65625q-0.390625 1.375 -0.6875 2.640625q-0.28125 1.265625 -0.671875 2.828125q-1.171875 1.171875 -1.375 1.765625q-0.78125 1.953125 -1.75 3.125q-0.390625 0.78125 -0.984375 1.375q-0.578125 0.578125 -1.171875 1.359375q-1.171875 1.75 -2.921875 3.515625q-0.984375 0.578125 -2.0625 1.078125q-1.0625 0.484375 -2.046875 0.875q-0.578125 0.390625 -1.265625 0.78125q-0.6875 0.390625 -1.265625 0.78125q-2.34375 0.578125 -3.421875 0.875q-1.078125 0.296875 -2.046875 0.6875q-0.984375 0.390625 -1.671875 0.59375q-0.671875 0.1875 -1.453125 0.37500763q-1.953125 0.59375 -2.9375 0.203125q-0.96875 -0.39063263 -1.953125 -0.39063263q-3.3125 0.39063263 -4.984375 0.39063263q-1.65625 0 -3.21875 0q-4.6875 0.78125 -7.515625 0.78125q-2.828125 0 -6.15625 0.390625q-4.09375 0.390625 -8.203125 0.390625q-4.09375 0 -8.203125 0.390625q-3.703125 0.390625 -7.328125 0.484375q-3.609375 0.09375 -6.921875 0.6875q-0.390625 0.96875 -0.203125 2.4375q0.203125 1.46875 0.296875 2.9375q0.09375 1.453125 0 2.828125q-0.09375 1.359375 -0.6875 2.53125q-0.390625 0.390625 -0.875 0.6875q-0.484375 0.296875 -0.875 0.875q0.1875 1.765625 0.765625 2.9375q0.59375 1.171875 1.375 2.140625q0.390625 2.34375 0.484375 5.078125q0.109375 2.734375 0.109375 5.078125q0 2.15625 -0.5 3.71875q-0.484375 1.5625 -0.875 3.125q-0.96875 0.1875 -1.5625 0.875q-0.578125 0.6875 -1.359375 1.078125q-2.9375 0.390625 -4.109375 0.59375q-1.171875 0.1875 -2.53125 0.1875q-1.765625 -0.390625 -1.96875 -0.296875q-0.1875 0.09375 -0.578125 0.09375q-0.390625 0 -0.984375 -0.28125q-0.578125 -0.296875 -1.15625 -0.5q-2.15625 0.203125 -2.640625 0.015625q-0.484375 -0.203125 -1.078125 -0.40625q-1.171875 0 -2.25 0.109375q-1.0625 0.09375 -2.046875 0.28125q-2.734375 0.390625 -5.171875 1.953125q-2.4375 1.5625 -4.984375 1.765625q-1.359375 0 -2.828125 -0.1875q-1.46875 -0.203125 -2.828125 -0.203125q-1.953125 0 -2.34375 -0.296875q-0.390625 -0.296875 -0.78125 -0.484375q-0.984375 -0.390625 -2.0625 -0.296875q-1.0625 0.09375 -2.046875 -0.09375q-1.171875 -0.390625 -2.046875 -0.96875q-0.875 -0.59375 -1.859375 -0.796875q-0.390625 -0.390625 -0.78125 -0.875q-0.390625 -0.484375 -0.96875 -1.078125q-0.78125 -0.390625 -1.46875 -0.671875q-0.6875 -0.296875 -0.875 -0.6875q-0.390625 -0.984375 -0.5 -2.9375q-0.09375 -1.953125 -0.484375 -3.3125q-0.1875 -0.984375 -0.296875 -2.046875q-0.09375 -1.078125 -0.09375 -1.859375q-0.390625 -2.546875 0 -5.28125q0 -0.96875 0.96875 -1.9375q0.984375 -0.984375 1.375 -1.96875q0.203125 -0.390625 0.6875 -1.84375q0.484375 -1.46875 0.484375 -2.0625q0 -1.5625 -0.6875 -3.21875q-0.671875 -1.65625 -1.0625 -3.21875q-0.390625 -0.984375 -1.375 -2.34375q-0.96875 -1.375 -1.171875 -2.546875l0 -3.7031326q0 -5.859375 -0.296875 -12.109375q-0.28125 -6.25 0.109375 -12.5q-0.390625 -4.5 0.28125 -7.125q0.6875 -2.640625 1.078125 -5.578125q-0.578125 -1.75 0 -2.828125q0.59375 -1.078125 0.203125 -3.03125q-0.203125 -1.171875 -0.6875 -2.734375q-0.484375 -1.5625 -0.875 -2.34375q-0.984375 -2.53125 -0.6875 -3.5q0.296875 -0.984375 0.09375 -1.96875q-0.578125 -1.953125 -0.78125 -4.296875q-0.390625 -1.953125 -0.78125 -2.734375q0.390625 -1.5625 0.78125 -3.3125q0.390625 -1.765625 1.765625 -2.734375q1.359375 -0.984375 3.40625 -1.265625q2.0625 -0.296875 3.8125 -0.296875q1.5625 -0.203125 3.421875 -0.484375q1.859375 -0.296875 3.421875 -0.6875q1.5625 -0.390625 3.515625 -0.1875q1.953125 0.1875 4.09375 -0.203125q1.375 -0.203125 2.546875 -0.296875q1.171875 -0.09375 2.34375 -0.09375q1.359375 0 2.625 -0.296875q1.28125 -0.296875 2.25 -0.484375q1.5625 -0.203125 3.421875 0q1.859375 0.1875 3.8125 0q1.5625 -0.390625 2.53125 -0.390625q2.734375 -0.203125 6.046875 -0.484375q3.328125 -0.296875 6.0625 0.671875q1.953125 1.5625 4.875 1.765625q2.9375 0.1875 5.671875 -0.984375q2.15625 -1.359375 3.21875 -1.65625q1.078125 -0.296875 2.0625 -0.296875q0.96875 0 1.65625 0.203125q0.6875 0.1875 1.65625 0.1875q2.734375 0.203125 5.859375 -0.28125q3.125 -0.5 6.453125 -0.6875q1.5625 -0.203125 2.921875 -0.09375q1.375 0.09375 2.9375 -0.109375q1.953125 -0.96875 2.921875 -0.671875q0.984375 0.28125 1.953125 0.09375q2.34375 -0.390625 4.78125 -0.78125q2.453125 -0.390625 4.796875 -0.59375q1.171875 -0.1875 2.4375 0.015625q1.265625 0.1875 2.4375 -0.203125q2.15625 0.390625 4.390625 0.484375q2.25 0.09375 4.015625 1.078125q1.75 -0.59375 2.828125 0.09375q1.078125 0.6875 1.75 1.859375q0.6875 1.171875 1.375 2.4375q0.6875 1.265625 1.859375 1.859375q2.34375 0.390625 4.0 1.375q1.65625 0.96875 3.421875 1.9375q0.390625 1.171875 1.0625 2.25q0.6875 1.078125 1.078125 2.25zm-122.265625 96.09376q1.5625 -1.171875 1.171875 -3.703125q-0.390625 -2.546875 -2.140625 -2.9375q-0.78125 0.390625 -1.171875 0.203125q-0.390625 -0.203125 -0.984375 -0.40625q-0.78125 0.984375 -0.875 2.15625q-0.09375 1.171875 0.296875 2.25q0.390625 1.0625 1.265625 1.84375q0.875 0.78125 2.4375 0.59375zm-2.53125 -95.12501q0.390625 -0.78125 0.875 -1.359375q0.484375 -0.59375 -0.296875 -1.375q-2.34375 0.203125 -3.90625 0.984375q-1.5625 0.78125 -1.75 2.921875q-0.203125 1.5625 0.28125 2.9375q0.5 1.359375 0.890625 2.34375q2.34375 -1.375 3.3125 -3.71875q0.203125 -0.578125 0.203125 -1.265625q0 -0.6875 0.390625 -1.46875zm31.046875 34.375q2.15625 -0.390625 2.9375 -2.734375q0.78125 -2.34375 -1.375 -3.515625q-1.953125 -0.390625 -2.828125 0.109375q-0.875 0.484375 -1.375 1.65625q-0.484375 1.171875 -0.1875 2.546875q0.296875 1.359375 1.46875 1.75l1.359375 0.1875zm3.90625 -26.5625q1.171875 -2.140625 3.421875 -2.71875q2.25 -0.59375 4.390625 -2.15625q-0.78125 -1.5625 -2.046875 -1.953125q-1.265625 -0.390625 -2.734375 -0.1875q-1.46875 0.1875 -3.03125 0.78125q-1.5625 0.578125 -2.921875 0.765625q-1.765625 1.5625 -1.375 4.296875q0.390625 2.734375 0 5.078125q-0.1875 2.15625 -0.578125 4.703125q-0.390625 2.53125 0.1875 4.671875q1.765625 0 2.546875 -1.171875q0.390625 -2.140625 0.484375 -2.328125q0.09375 -0.203125 0.296875 -0.59375q-0.203125 -3.90625 0.09375 -5.859375q0.296875 -1.953125 1.265625 -3.328125zm44.53125 23.046875q0.203125 -2.140625 -0.578125 -4.484375q-0.78125 -2.34375 -1.171875 -4.296875q-0.59375 -2.9375 -0.5 -5.859375q0.109375 -2.9375 -1.84375 -4.6875q-1.5625 -1.5625 -4.015625 -2.34375q-2.4375 -0.78125 -5.359375 -0.390625q-1.375 -0.984375 -2.25 -2.25q-0.875 -1.265625 -3.03125 -0.875q-0.96875 0.1875 -1.859375 1.359375q-0.875 1.171875 -1.65625 1.375q-3.515625 0.578125 -5.171875 0.875q-1.65625 0.296875 -3.21875 0.6875q-0.984375 -0.59375 -2.84375 -0.296875q-1.84375 0.296875 -2.828125 0.6875q-1.171875 7.8125 -0.59375 15.140625q0.59375 7.3125 1.578125 13.953125q2.734375 -0.1875 4.875 -0.28125q2.15625 -0.109375 4.5 -0.109375q0.390625 0 1.265625 -0.28125q0.875 -0.296875 1.65625 -0.296875q1.765625 -0.390625 3.21875 -0.390625q1.46875 0 3.03125 0q1.171875 0 2.34375 0.09375q1.171875 0.09375 2.15625 -0.09375q3.125 -0.984375 4.6875 -1.078125q1.5625 -0.09375 2.53125 -1.265625q1.375 -2.546875 1.765625 -2.9375q0.390625 -0.390625 0.78125 -0.96875q0.78125 -0.390625 1.359375 -0.484375q0.59375 -0.109375 1.171875 -0.5zm35.75 10.359375q0.578125 -1.375 0.96875 -3.421875q0.390625 -2.046875 -0.1875 -3.609375q-1.5625 -0.59375 -2.84375 0.78125q-1.265625 1.359375 -1.453125 3.125q-0.203125 1.5625 -0.296875 1.953125q-0.09375 0.390625 -1.078125 1.359375q-2.140625 1.953125 -3.21875 2.34375q-1.078125 0.390625 -1.265625 0.984375q-0.390625 0.96875 0.484375 2.53125q0.875 1.5625 1.859375 1.5625q0.578125 0 1.15625 -0.484375q0.59375 -0.484375 1.1875 -0.09375q3.3125 -2.734375 4.6875 -7.03125zm1.171875 -13.875q1.359375 0.390625 2.046875 -1.0625q0.6875 -1.46875 -0.296875 -2.453125q-1.953125 -0.390625 -2.4375 1.46875q-0.484375 1.859375 0.6875 2.046875zm-45.125 -13.46875q1.375 0.96875 1.078125 2.640625q-0.296875 1.65625 -0.484375 3.21875q-2.34375 -1.765625 -4.40625 -2.828125q-2.046875 -1.078125 -4.1875 -0.109375q-2.34375 -0.578125 -4.796875 0.296875q-2.4375 0.875 -4.390625 -0.09375q-0.578125 -1.375 -0.1875 -2.15625q0.390625 -0.78125 1.453125 -1.171875q1.078125 -0.390625 2.34375 -0.578125q1.28125 -0.203125 2.453125 -0.203125q1.5625 0 3.015625 -0.1875q1.46875 -0.203125 2.640625 -0.59375q1.171875 -0.1875 2.25 0.40625q1.078125 0.578125 1.859375 0.96875l1.359375 0.390625zm-3.3125 54.296883q-0.203125 -1.5625 0.875 -2.4375q1.078125 -0.890625 2.53125 -0.984375q1.46875 -0.09375 2.734375 0.59375q1.28125 0.671875 1.28125 2.234375q-1.171875 1.375 -2.640625 1.375q-1.46875 0 -3.421875 0.390625l-1.359375 -1.171875zm-5.078125 -1.765625q-0.984375 2.34375 -1.96875 2.9375q-0.96875 0.578125 -1.9375 1.359375q-0.984375 0.984375 -2.453125 2.25q-1.453125 1.265625 -1.65625 2.828125q0.203125 2.15625 -0.09375 2.640625q-0.296875 0.484375 -0.296875 0.875q0.203125 0.78125 0.59375 1.5625q0.390625 0.78125 0.390625 1.765625q-0.203125 1.359375 -0.296875 2.734375q-0.09375 1.359375 -0.875 2.34375q-3.71875 -1.171875 -3.328125 -3.8125q0.390625 -2.640625 1.5625 -4.0q-0.390625 -2.546875 -1.171875 -3.125q-0.1875 -3.515625 0.296875 -5.953125q0.484375 -2.453125 3.03125 -3.625q1.75 -0.96875 4.0 -0.765625q2.25 0.1875 4.203125 -0.015625zm-63.09375 40.234375q0.59375 0 2.046875 0q1.46875 0 2.0625 0.59375q-0.390625 1.5625 -2.734375 2.25q-2.34375 0.671875 -4.5 1.0625q-1.5625 0.203125 -3.21875 0.109375q-1.65625 -0.109375 -1.859375 -2.0625q-1.359375 0 -2.25 -0.390625q-0.875 -0.390625 -1.84375 -0.78125q-0.59375 -2.140625 -1.46875 -4.578125q-0.875 -2.453125 -0.09375 -4.796875q1.171875 -0.390625 2.140625 0.390625q0.984375 0.78125 1.171875 1.171875q0.59375 0.984375 0.390625 2.0625q-0.1875 1.0625 0.203125 2.046875q0.78125 -0.203125 1.65625 -0.484375q0.875 -0.296875 1.65625 -1.078125q1.375 0.390625 0.984375 2.53125q1.953125 1.171875 3.21875 1.375q1.265625 0.1875 2.4375 0.578125z" fill-rule="nonzero"/><path fill="#ff4136" d="m695.4756 51.297203q-0.78125 0.1875 -1.265625 0.578125q-0.484375 0.390625 -1.46875 0q-1.171875 -1.171875 0.203125 -3.3125q0.78125 -0.390625 1.453125 -0.78125q0.6875 -0.390625 1.46875 -0.59375q0.984375 -0.578125 1.765625 -1.15625q0.78125 -0.59375 1.953125 -0.796875q1.953125 -1.171875 3.90625 -2.4375q1.953125 -1.265625 4.6875 -0.6875q2.34375 0.390625 2.734375 0.890625q0.390625 0.484375 0 1.453125q-0.78125 0.390625 -1.671875 0.5q-0.875 0.09375 -1.84375 0.484375q-0.78125 0.1875 -1.375 0.484375q-0.578125 0.296875 -1.171875 0.6875q-0.96875 0.390625 -2.140625 0.390625q-1.171875 0 -1.765625 0.96875q-3.3125 0.984375 -5.46875 3.328125zm112.703125 98.82813q-1.953125 1.359375 -2.9375 2.921875q-4.6875 3.328125 -9.46875 6.65625q-4.78125 3.3125 -10.25 5.84375q-2.15625 1.375 -3.625 1.859375q-1.453125 0.484375 -3.015625 1.078125q-0.78125 0.1875 -1.171875 0.578125q-0.390625 0.390625 -0.78125 0.59375q-2.546875 0.578125 -3.53125 0.96875q-0.96875 0.390625 -1.9375 0.78125q-0.78125 0.203125 -2.34375 0.984375q-2.34375 0.78125 -5.375 0.484375q-3.03125 -0.296875 -6.15625 0.09375q-1.171875 0.203125 -2.734375 0.40625q-1.5625 0.1875 -3.125 0.578125q-1.5625 -0.390625 -3.8125 -0.390625q-2.234375 0 -4.390625 -0.203125q-1.359375 -0.1875 -2.734375 -0.578125q-1.359375 -0.390625 -2.921875 -0.59375q-1.953125 -0.1875 -3.90625 -0.28125q-1.953125 -0.109375 -4.109375 -0.6875q-2.53125 0.390625 -4.390625 -0.390625q-1.859375 -0.78125 -4.0 -0.59375q-1.171875 -0.390625 -2.640625 -0.671875q-1.46875 -0.296875 -2.734375 -0.6875q-1.265625 -0.390625 -2.15625 -1.171875q-0.875 -0.78125 -0.671875 -2.34375q-0.984375 -1.375 -2.84375 -2.15625q-1.84375 -0.78125 -3.609375 -1.5625q-1.359375 -0.1875 -2.34375 0.40625q-0.96875 0.578125 -2.140625 0.578125q-0.59375 0.1875 -1.46875 0q-0.875 -0.203125 -1.65625 -0.390625q-1.5625 -0.390625 -2.640625 -0.96875q-1.078125 -0.59375 -2.640625 -1.578125q-0.578125 -0.390625 -1.171875 -0.390625q-0.578125 0 -1.171875 -0.390625q-1.5625 -0.96875 -2.9375 -2.046875q-1.359375 -1.078125 -2.921875 -1.46875q-2.921875 -3.90625 -5.859375 -7.421875q-2.921875 -3.515625 -4.6875 -8.203125q-0.96875 -1.171875 -1.46875 -2.4375q-0.484375 -1.265625 -1.0625 -2.828125q-0.390625 -0.390625 -0.890625 -0.78125q-0.484375 -0.390625 -1.265625 -0.78125q-1.75 -2.15625 -2.828125 -4.890625q-1.078125 -2.7343826 -2.640625 -4.8750076q-0.78125 -5.671875 -1.65625 -11.625q-0.875 -5.953125 1.46875 -11.8125q0.78125 -2.34375 1.953125 -3.21875q1.171875 -0.890625 1.5625 -2.84375q0.1875 -0.578125 -0.015625 -1.359375q-0.1875 -0.78125 0.015625 -1.5625q0.390625 -1.171875 0.578125 -2.640625q0.203125 -1.46875 0.59375 -2.828125q1.359375 -2.734375 2.4375 -5.46875q1.078125 -2.734375 2.640625 -4.890625q0.578125 -2.140625 2.34375 -3.90625q1.359375 -1.359375 2.921875 -2.53125q0.984375 -0.390625 1.765625 -0.390625q0.78125 0 1.75 -0.390625q0.984375 -0.390625 1.953125 -1.078125q0.984375 -0.6875 1.953125 -1.078125q1.953125 -2.734375 3.03125 -4.875q1.078125 -2.15625 2.640625 -3.515625q1.5625 -1.171875 2.921875 -1.859375q1.375 -0.6875 2.9375 -1.46875q2.734375 -0.390625 3.90625 -2.34375q1.953125 -0.78125 3.609375 -0.875q1.65625 -0.09375 3.609375 -0.6875q1.5625 -0.390625 2.640625 -0.671875q1.078125 -0.296875 2.25 -0.5q0.96875 -0.1875 1.84375 -0.578125q0.890625 -0.390625 1.859375 -0.390625q1.5625 0 2.828125 0.390625q1.28125 0.390625 2.453125 -0.59375q2.140625 -0.578125 3.890625 -0.375q1.765625 0.1875 3.921875 0.1875q1.171875 0 2.234375 -0.09375q1.078125 -0.109375 2.0625 -0.109375q0.78125 0 1.359375 0.203125q0.59375 0.1875 1.171875 0.390625q0.78125 0 1.5625 -0.09375q0.78125 -0.109375 1.765625 -0.109375q2.53125 0 5.953125 0.5q3.421875 0.484375 6.546875 0.875q1.359375 0 2.921875 0.390625q1.5625 0.390625 3.125 0.1875q3.90625 0.78125 6.15625 1.5625q2.25 0.78125 4.984375 1.375q0.96875 0.1875 1.9375 0.1875q0.984375 0 1.375 0.59375q3.90625 1.5625 7.8125 2.828125q3.90625 1.265625 7.234375 3.421875q0.96875 0.578125 1.9375 1.359375q0.984375 0.78125 1.96875 1.171875q1.5625 0.984375 3.125 1.765625q1.5625 0.78125 2.140625 2.140625q1.5625 0.390625 2.640625 1.375q1.078125 0.96875 2.4375 1.359375q1.5625 1.765625 3.421875 3.234375q1.859375 1.453125 2.828125 3.609375q1.5625 0.96875 2.34375 2.140625q0.78125 1.171875 1.765625 2.15625q1.5625 3.90625 3.125 6.9375q1.5625 3.015625 1.75 6.921875q0.984375 2.15625 2.046875 5.09375q1.078125 2.921875 -1.0625 5.0625q-0.59375 1.5625 -1.46875 3.03125q-0.875 1.46875 -1.46875 3.03125q-0.1875 0.96875 -0.390625 2.640625q-0.1875 1.65625 0.203125 2.4375q0.578125 1.171875 1.9375 2.34375q1.375 1.171875 2.15625 2.53125q0.203125 0.59375 0.203125 1.1875q0 0.578125 0.390625 0.96875q-0.78125 1.359375 -1.28125 3.421875q-0.484375 2.046875 -1.265625 4.0000076q-0.1875 1.953125 -0.09375 2.046875q0.09375 0.09375 0.09375 0.484375q-2.34375 4.296875 -3.515625 6.9375q-1.171875 2.640625 -3.125 5.171875q-0.390625 0.78125 -0.875 1.671875q-0.484375 0.875 -1.265625 1.65625q-0.59375 0.78125 -1.46875 1.265625q-0.875 0.484375 -0.875 1.46875zm-125.59375 -66.60938q0.59375 -0.96875 0.59375 -3.3125q0 -2.34375 -0.78125 -2.734375q-0.984375 0.390625 -2.0625 1.078125q-1.0625 0.671875 -1.453125 1.84375q-0.59375 1.953125 0.1875 3.125q0.59375 0.59375 1.859375 0.6875q1.265625 0.09375 1.65625 -0.6875zm19.140625 -20.703125q1.171875 -1.171875 1.171875 -2.53125q-3.515625 -0.390625 -4.484375 1.359375q-2.15625 0.984375 -3.140625 3.03125q-0.96875 2.046875 -2.71875 3.21875q-0.78125 0.390625 -1.953125 0.984375q-1.171875 0.578125 -2.15625 1.5625q-0.390625 0.390625 -0.6875 1.078125q-0.28125 0.671875 -0.28125 1.265625q0.1875 0.390625 0.875 0.6875q0.6875 0.28125 1.078125 0.28125q1.359375 0 2.140625 -1.0625q0.78125 -1.078125 1.765625 -2.0625q1.171875 -0.578125 1.953125 -1.546875q0.78125 -0.984375 1.5625 -1.765625q0.96875 -1.171875 2.328125 -2.25q1.375 -1.078125 2.546875 -2.25zm2.734375 87.70313q0.984375 0 1.65625 -0.78125q0.6875 -0.78125 0.6875 -1.5625q0.203125 -0.59375 -0.1875 -1.078125q-0.390625 -0.484375 -0.78125 -0.875q-0.78125 -0.984375 -1.46875 -2.4375q-0.6875 -1.46875 -1.078125 -2.453125q-0.390625 -1.171875 -0.390625 -2.34375q0 -1.171875 0 -2.234375q0 -1.078125 -0.203125 -1.953125q-0.1875 -0.890625 -1.15625 -1.671875q-1.171875 1.375 -0.984375 3.03125q0.203125 1.65625 -0.1875 3.8125q-0.390625 2.53125 -0.203125 4.984375q0.203125 2.4375 1.171875 3.609375q0.390625 0.390625 1.65625 1.078125q1.28125 0.671875 1.46875 0.875zm67.78125 -28.328133q0.390625 -2.921875 0.484375 -5.75q0.09375 -2.84375 0.484375 -5.578125q0.390625 -1.5625 1.171875 -3.015625q0.78125 -1.46875 0.984375 -3.03125q0.390625 -2.546875 -0.296875 -5.078125q-0.6875 -2.546875 -0.875 -5.28125q0 -2.734375 0.28125 -5.265625q0.296875 -2.546875 0.5 -5.28125q0 -0.96875 -0.296875 -1.359375q-0.296875 -0.390625 -0.296875 -1.171875q-0.390625 -0.984375 -0.296875 -1.765625q0.109375 -0.78125 -0.28125 -1.171875q-0.203125 -0.390625 -0.890625 -1.0625q-0.671875 -0.6875 -1.0625 -1.078125q-0.984375 -0.984375 -2.546875 -1.5625q-1.5625 -0.59375 -2.734375 -0.984375q-0.578125 -0.78125 -1.46875 -1.359375q-0.875 -0.59375 -1.265625 -1.765625q-0.390625 -0.1875 -0.875 -0.671875q-0.484375 -0.5 -1.265625 -0.5q-1.171875 -0.1875 -2.0625 0.40625q-0.875 0.578125 -1.84375 0.765625q-1.765625 0 -1.96875 0.109375q-0.1875 0.09375 -0.578125 0.09375q-2.734375 -0.203125 -3.328125 -0.390625q-0.578125 -0.203125 -1.546875 -0.390625q-2.15625 -0.390625 -4.015625 -0.390625q-1.84375 0 -3.21875 -1.171875q-0.578125 -0.390625 -0.96875 -1.078125q-0.390625 -0.6875 -0.78125 -1.078125q-0.59375 -0.1875 -2.15625 -0.578125q-2.140625 0.1875 -3.609375 1.953125q-1.46875 1.75 -3.03125 2.140625q-2.34375 -0.1875 -3.03125 -0.09375q-0.671875 0.09375 -1.65625 0.296875q-2.53125 0.390625 -4.296875 1.078125q-1.75 0.671875 -3.703125 1.65625q-1.375 1.5625 -2.15625 3.328125q-0.78125 1.75 -1.75 4.09375q-0.390625 1.5625 -0.203125 2.828125q0.203125 1.265625 0.203125 2.25q-0.390625 2.140625 -0.59375 4.59375q-0.1875 2.4375 -0.578125 4.578125q-0.390625 1.5625 -0.59375 3.234375q-0.1875 1.65625 -0.578125 3.21875q-0.203125 0.78125 -0.296875 1.5625q-0.09375 0.78125 -0.296875 1.5625q0 3.3125 -0.296875 4.390625q-0.28125 1.078125 -0.671875 2.25q-1.375 1.359375 -1.96875 3.03125q-0.578125 1.65625 -0.96875 3.21875q-0.390625 2.921875 0.1875 5.953125q0.59375 3.03125 0.796875 5.7656326q0.1875 2.921875 -0.015625 5.375q-0.1875 2.4375 0.015625 4.96875q0.390625 0.78125 1.0625 1.078125q0.6875 0.296875 0.890625 1.078125q1.359375 0.96875 2.4375 1.75q1.078125 0.78125 2.640625 1.5625q0.578125 0.390625 1.0625 0.59375q0.5 0.1875 1.078125 0.578125q1.171875 0.390625 2.25 0.390625q1.078125 0 2.046875 0.390625q0.59375 0 1.078125 0.203125q0.484375 0.1875 1.078125 0.390625q2.140625 0.390625 4.1875 0.59375q2.0625 0.1875 3.421875 0.96875q4.296875 0.390625 7.71875 0.59375q3.421875 0.1875 7.328125 0.578125q2.53125 0 5.171875 -0.390625q2.640625 -0.390625 4.984375 -0.984375q1.5625 -0.390625 3.21875 -0.78125q1.65625 -0.390625 2.828125 -1.171875q0.984375 -0.390625 2.34375 -1.84375q1.375 -1.46875 2.15625 -2.453125q0.78125 -0.96875 0.96875 -2.4375q0.203125 -1.46875 0.59375 -3.03125q0.1875 -1.171875 0.375 -2.234375q0.203125 -1.078125 0.40625 -2.0625q0.390625 -2.34375 0.390625 -4.9687576q0 -2.640625 0.390625 -5.1875zm33.984375 -39.25q0.390625 -2.15625 -1.28125 -3.328125q-1.65625 -1.171875 -3.015625 -2.53125q-1.375 0.578125 -1.375 1.65625q0 1.078125 0.875 2.0625q0.890625 0.96875 2.15625 1.65625q1.265625 0.671875 2.640625 0.484375zm3.125 17.375q0.578125 0.78125 0.375 1.953125q-0.1875 1.171875 0.59375 1.5625q0.390625 -1.5625 1.46875 -2.53125q1.078125 -0.984375 1.46875 -2.546875q0.390625 -0.96875 0 -2.140625q-0.390625 -1.171875 -0.59375 -2.34375q-0.96875 -3.71875 -2.34375 -4.890625q-0.96875 2.9375 -0.875 5.578125q0.09375 2.625 -0.09375 5.359375zm-123.4375 -42.578125q-0.984375 2.546875 -3.03125 3.921875q-2.046875 1.359375 -4.984375 0.96875q-0.390625 -2.9375 1.859375 -4.59375q2.25 -1.65625 4.59375 -2.25q0.96875 -0.78125 1.84375 -1.359375q0.890625 -0.59375 2.0625 -0.59375q0 1.171875 -0.984375 1.671875q-0.96875 0.484375 -1.75 1.265625l0.390625 0.96875zm142.76562 27.546875q0.390625 1.359375 0.96875 3.03125q0.59375 1.65625 0.015625 3.21875q-0.390625 1.171875 -0.984375 2.25q-0.578125 1.0625 -1.75 1.453125q-1.765625 -6.640625 -4.109375 -11.21875q-2.34375 -4.59375 -4.6875 -9.28125q0.984375 -1.171875 2.046875 -0.6875q1.078125 0.484375 2.0625 1.46875q1.171875 1.171875 1.84375 2.25q0.6875 1.0625 1.671875 2.4375q0.390625 0.78125 0.875 1.265625q0.484375 0.484375 0.875 1.265625q0.390625 0.390625 0.578125 1.171875q0.203125 0.78125 0.59375 1.375zm-80.65625 -9.96875q1.5625 -0.390625 3.40625 0.296875q1.859375 0.6875 1.46875 2.25q-0.1875 0.96875 -1.859375 1.46875q-1.65625 0.484375 -2.625 0.09375q-1.171875 -0.390625 -1.765625 -2.046875q-0.578125 -1.671875 1.375 -2.0625zm17.578125 2.734375q0.578125 0 0.96875 0.5q0.390625 0.484375 0.78125 0.875q0.59375 0.78125 1.375 2.25q0.78125 1.453125 1.171875 3.015625q0.390625 1.5625 0.390625 3.234375q0 1.65625 -0.78125 3.015625q-1.953125 0.59375 -3.515625 -0.390625q-1.171875 -1.5625 -0.984375 -4.0q0.203125 -2.4375 -0.78125 -4.0q-0.96875 -1.765625 -3.03125 -1.765625q-2.046875 0 -3.609375 -1.171875q0.203125 -0.78125 -0.09375 -1.65625q-0.296875 -0.875 0.484375 -1.265625q2.15625 0.390625 4.109375 0.6875q1.953125 0.28125 3.515625 0.671875zm56.25 62.703133q0.96875 3.703125 -1.078125 6.34375q-2.046875 2.640625 -3.609375 4.203125q0.390625 2.734375 -0.78125 4.203125q-1.171875 1.453125 -2.546875 2.828125q-0.96875 0.1875 -2.640625 0.96875q-1.65625 0.78125 -2.4375 1.765625q-1.75 1.953125 -3.125 4.390625q-1.359375 2.4375 -3.515625 4.0q-1.171875 0.203125 -2.734375 0.59375q-1.5625 0.390625 -2.921875 0q-0.390625 -0.203125 -1.375 -1.265625q-0.96875 -1.078125 -0.78125 -1.46875q0 -0.78125 0.78125 -1.171875q0.78125 -0.390625 0.984375 -1.375q0.96875 -0.390625 1.9375 -0.484375q0.984375 -0.09375 1.96875 -0.6875q2.53125 -2.34375 4.0 -2.828125q1.46875 -0.484375 2.640625 -1.65625q0.96875 -1.171875 1.9375 -2.25q0.984375 -1.078125 1.96875 -2.046875q1.5625 -1.5625 2.828125 -2.828125q1.265625 -1.28125 2.640625 -2.84375q0.96875 -1.359375 1.75 -2.828125q0.78125 -1.46875 1.765625 -3.03125q0.390625 -0.78125 0.484375 -1.453125q0.09375 -0.6875 0.484375 -1.078125l1.375 0zm-34.765625 30.265625q0.96875 -0.78125 3.3125 -1.171875q2.34375 -0.390625 3.125 1.171875q0.390625 0.390625 0.390625 1.28125q0 0.875 -0.578125 1.84375q-0.59375 0.984375 -2.84375 1.28125q-2.234375 0.28125 -3.609375 0.28125q-1.5625 -0.390625 -1.265625 -2.140625q0.296875 -1.765625 1.46875 -2.546875zm-69.921875 1.5625q-1.171875 1.765625 -2.84375 1.28125q-1.65625 -0.5 -3.21875 -0.890625q-0.578125 -0.1875 -1.265625 -0.09375q-0.6875 0.09375 -1.265625 -0.09375q-1.5625 -0.390625 -2.9375 -1.265625q-1.359375 -0.890625 -2.921875 -1.28125q-0.59375 -0.1875 -1.375 -0.484375q-0.78125 -0.296875 -1.375 -0.78125q-0.578125 -0.484375 -0.671875 -1.0625q-0.09375 -0.59375 0.6875 -1.375q0.578125 -0.78125 2.53125 -1.078125q1.953125 -0.296875 2.734375 0.09375q1.5625 1.375 1.75 1.28125q0.203125 -0.109375 0.59375 0.09375q1.375 1.75 1.65625 1.953125q0.296875 0.1875 0.5 0.578125q1.171875 1.5625 1.84375 1.5625q0.6875 0 1.28125 0.203125q0.96875 0.390625 2.046875 0.6875q1.078125 0.28125 2.25 0.671875zm-52.34375 -91.40626q-0.203125 0.59375 0.09375 1.375q0.296875 0.78125 0.09375 1.75q-0.390625 1.375 -0.59375 3.328125q-0.1875 1.953125 -0.96875 2.921875q-0.390625 0.390625 -1.65625 0.890625q-1.265625 0.484375 -2.25 0.09375q-0.390625 -0.390625 -0.875 -1.265625q-0.484375 -0.890625 -0.484375 -1.28125q0 -1.171875 0.578125 -2.828125q0.59375 -1.65625 1.171875 -2.828125q1.171875 -2.546875 2.4375 -4.984375q1.28125 -2.4375 2.640625 -4.390625q0.984375 -1.171875 1.953125 -1.953125q0.984375 -0.78125 1.953125 -1.765625q1.5625 0 1.859375 1.5625q0.296875 1.5625 -0.6875 2.734375q-2.140625 1.375 -3.609375 3.53125q-1.46875 2.140625 -1.65625 3.109375z" fill-rule="nonzero"/></g></svg>