<svg version="1.1" viewBox="0.0 0.0 960.0 720.0" fill="none" stroke="none" stroke-linecap="square" stroke-miterlimit="10" xmlns:xlink="http://www.w3.org/1999/xlink" xmlns="http://www.w3.org/2000/svg"><clipPath id="p.0"><path d="m0 0l960.0 0l0 720.0l-960.0 0l0 -720.0z" clip-rule="nonzero"/></clipPath><g clip-path="url(#p.0)"><path fill="#000000" fill-opacity="0.0" d="m0 0l960.0 0l0 720.0l-960.0 0z" fill-rule="evenodd"/><path fill="#000000" fill-opacity="0.0" d="m68.19948 73.56431l545.5748 0l0 180.0l-545.5748 0z" fill-rule="evenodd"/><path fill="#39cccc" d="m185.44948 109.31931q-1.5 0 -2.8125 -0.1875q-1.3125 -0.1875 -2.8125 0.0625q-0.125 -1.125 0.25 -1.125q0.375 0 0.625 -0.25q3.875 -0.875 7.5625 -0.125q3.6875 0.75 6.6875 2.25q0.125 0.5 0.5625 0.75q0.4375 0.25 0.6875 0.625q0.625 0.625 1.0625 1.5625q0.4375 0.9375 0.9375 1.6875q0.25 0.5 0.625 0.8125q0.375 0.3125 0.125 0.9375q-0.75 0.375 -1.375 0q-0.625 -0.375 -1.25 -1.0q-0.625 -0.625 -1.1875 -1.1875q-0.5625 -0.5625 -1.3125 -0.5625q-0.125 -0.5 -0.875 -1.25q-0.875 -0.625 -1.4375 -0.8125q-0.5625 -0.1875 -1.0625 -0.4375q-0.375 -0.25 -0.6875 -0.4375q-0.3125 -0.1875 -0.5625 -0.3125q-0.5 -0.25 -0.9375 -0.1875q-0.4375 0.0625 -1.0625 -0.1875q-0.375 -0.25 -0.75 -0.375q-0.375 -0.125 -1.0 -0.25zm14.625 35.499992q0.25 0.875 1.0 1.25q0.75 0.375 1.375 1.125q1.625 2.0 0.375 4.125q-0.625 1.875 -0.8125 3.6875q-0.1875 1.8125 -0.9375 3.5625q-0.625 1.375 -1.625 2.5625q-1.0 1.1875 -1.5 2.5625q-1.125 0.625 -1.5 2.125q-0.625 0.625 -1.1875 0.9375q-0.5625 0.3125 -1.4375 0.8125q-0.375 0.25 -0.6875 0.4375q-0.3125 0.1875 -0.6875 0.3125q-0.625 0.25 -1.125 0.125q-0.5 -0.125 -1.125 0.125q-0.375 0 -0.875 0.375q-0.5 0.375 -0.75 0.625q-0.625 0.625 -1.125 1.625q-0.5 1.0 -1.5 1.375q-1.75 0.375 -3.375 0.625q-1.625 0.25 -3.75 0.375q-1.125 0 -2.625 0.0625q-1.5 0.0625 -2.875 0.3125q-3.25 0 -5.875 0.25q-2.625 0.25 -5.5 0.375q-1.875 0.125 -3.5 0.1875q-1.625 0.0625 -3.5 0.4375q-0.375 0.125 -0.75 0.25q-0.375 0.125 -0.625 0.125q-1.0 0.125 -2.0 0.0625q-1.0 -0.0625 -2.0 -0.0625q-0.75 0 -1.3125 -0.1875q-0.5625 -0.1875 -1.1875 -0.1875q-0.625 0 -1.375 0.125q-0.75 0.125 -1.5 0.25q-0.625 0 -1.3125 -0.0625q-0.6875 -0.0625 -1.3125 -0.1875q-1.125 -0.125 -2.375 0.0625q-1.25 0.1875 -2.375 -0.0625q-1.0 0 -1.6875 0.1875q-0.6875 0.1875 -1.4375 0.0625q-1.0 2.375 -1.0 3.875q0 1.5 -0.625 2.625q0.125 0.625 0.625 0.6875q0.5 0.0625 0.875 0.5625q0.25 0.625 0.125 1.3125q-0.125 0.6875 0 1.4375q0.125 0.5 0.1875 1.0q0.0625 0.5 0.0625 1.125q0.125 3.25 0.375 6.5625q0.25 3.3125 0.375 5.9375q0 0.875 -0.3125 1.4375q-0.3125 0.5625 -0.75 1.0q-0.4375 0.4375 -0.9375 0.875q-0.5 0.4375 -0.625 1.1875q-0.75 0.625 -1.5625 1.3125q-0.8125 0.6875 -1.8125 0.9375q-1.0 0.25 -2.0625 0.1875q-1.0625 -0.0625 -2.0625 -0.0625q-1.25 0 -2.5625 0.125q-1.3125 0.125 -2.6875 0.125q-0.75 0 -1.625 -0.1875q-0.875 -0.1875 -1.625 -0.1875q-1.375 0.125 -2.625 0.125q-1.25 0 -2.625 -0.375q-0.5 -0.5 -1.0 -0.6875q-0.5 -0.1875 -0.875 -0.5625q-0.625 -0.5 -1.25 -1.0q-0.625 -0.5 -1.75 -0.75q-0.75 0 -1.5 0.125q-0.75 0.125 -1.375 0.375q-1.625 0.25 -2.1875 0.5625q-0.5625 0.3125 -1.1875 0.5625q-1.0 0.5 -1.75 1.125q-0.75 0.625 -2.25 0.875q-0.625 0.125 -1.8125 -0.375q-1.1875 -0.5 -1.5625 -1.0q-0.625 -0.625 -0.75 -1.9375q-0.125 -1.3125 -0.375 -2.6875q-0.25 -0.875 -0.375 -1.625q-0.125 -0.75 -0.375 -1.375q-0.125 -0.875 0.125 -1.6875q0.25 -0.8125 0.375 -1.4375q0 -1.125 0 -2.4375q0 -1.3125 -0.25 -2.5625q0 -0.625 -0.25 -1.1875q-0.25 -0.5625 -0.25 -1.1875q0 -0.375 0.0625 -0.8125q0.0625 -0.4375 0.0625 -0.9375q0 -1.0 -0.25 -2.0625q-0.25 -1.0625 -0.125 -1.9375q0.125 -1.0 0.8125 -1.625q0.6875 -0.625 0.9375 -1.25q0.125 -0.5 0.125 -1.25q0 -0.75 0 -1.375q0 -2.875 -1.375 -4.5q-0.25 -0.25 -0.5 -0.4375q-0.25 -0.1875 -0.5 -0.5625q-0.625 -1.125 -0.25 -2.625q0.375 -1.5 0.5 -2.5q0.125 -1.0 0.125 -1.9375q0 -0.9375 0.375 -1.5625q0.5 -0.625 1.0 -1.0625q0.5 -0.4375 0.5 -1.0625q0 -1.0 -0.75 -1.4375q-0.75 -0.4375 -1.0 -1.0625q-0.375 -0.75 -0.375 -1.75q0 -1.0 0 -2.375q-0.125 -2.125 -0.3125 -4.4375q-0.1875 -2.3125 -0.1875 -4.1875q0 -3.875 -0.125 -7.625q-0.125 -3.75 -0.75 -6.875q0.375 -3.2499924 -0.1875 -6.2499924q-0.5625 -3.0 -0.0625 -6.375q0.25 -0.375 0.75 -1.375q0.875 -0.375 1.6875 -1.0q0.8125 -0.625 2.1875 -0.875q3.25 0.125 5.1875 0q1.9375 -0.125 3.6875 0.25q0.375 0.375 0.5 0.75q0.125 0.375 0.5 0.625q0.5 0.375 2.0 0.75q1.5 0.375 2.5 0.125q0.875 -0.25 1.625 -0.875q0.75 -0.625 1.375 -0.875q1.5 -0.375 1.9375 -0.5625q0.4375 -0.1875 0.8125 -0.4375q0.75 -0.25 1.5625 -0.25q0.8125 0 1.6875 -0.125q0.5 -0.125 1.75 -0.375q1.0 0 1.875 0.0625q0.875 0.0625 1.75 -0.0625q0.625 -0.125 1.5625 -0.0625q0.9375 0.0625 1.6875 -0.0625q0.375 -0.125 0.6875 -0.25q0.3125 -0.125 0.6875 -0.125q1.5 -0.125 2.9375 0.0625q1.4375 0.1875 2.8125 0.0625q0.625 0 1.375 0.0625q0.75 0.0625 1.375 0.0625q2.5 -0.125 5.25 -0.5625q2.75 -0.4375 5.25 -0.4375q2.25 0 4.3125 0.0625q2.0625 0.0625 4.0625 -0.3125q0.375 -0.125 1.375 -0.375q1.0 -0.25 1.9375 -0.25q0.9375 0 1.9375 -0.25q0.25 -0.125 0.6875 -0.0625q0.4375 0.0625 1.0625 0.0625q0.75 -0.125 2.0625 -0.125q1.3125 0 2.0625 0.25q0.5 0.25 0.875 0.5625q0.375 0.3125 0.75 0.5625q0.625 0.375 2.1875 0.75q1.5625 0.375 2.4375 0.125q0.875 -0.25 1.4375 -0.875q0.5625 -0.625 1.4375 -0.875q0.875 -0.25 1.4375 0q0.5625 0.25 1.1875 -0.375q1.25 0.375 2.5 0.4375q1.25 0.0625 2.625 -0.0625q1.0 0 2.1875 0.1875q1.1875 0.1875 2.1875 0.4375q1.125 0.25 2.0625 0.5q0.9375 0.25 1.6875 0.625q0.5 0.25 0.875 0.625q0.375 0.375 1.0 0.5q0.75 1.125 1.6875 2.0q0.9375 0.875 1.9375 1.75q0.625 1.5 1.375 2.875q0.75 1.375 2.125 2.5q0.25 0.625 0.5 1.3125q0.25 0.6875 0.75 1.0625q0.375 2.4999924 1.375 4.8124924q1.0 2.3125 0.75 5.0625q-0.125 0.625 -0.25 1.25q-0.125 0.625 0.125 1.375q-0.625 0.75 -0.625 2.0625q0 1.3125 -0.25 2.4375q-0.5 0.125 -0.625 0.5625q-0.125 0.4375 -0.125 0.6875zm-105.375 -10.375q0.625 -0.25 0.75 -1.0q0.125 -0.75 0.5 -1.25q-1.375 -0.625 -1.625 -0.5q-0.25 0.125 -0.5 -0.125q-0.5 0.375 -0.625 0.9375q-0.125 0.5625 -0.0625 1.125q0.0625 0.5625 0.5 0.8125q0.4375 0.25 1.0625 0zm3.625 -11.874992q0.125 -0.625 0.25 -1.125q0.125 -0.5 -0.125 -0.875q-0.25 -0.375 -1.0625 -0.75q-0.8125 -0.375 -1.1875 -0.375q-0.375 0 -1.25 0.25q-0.875 0.25 -1.125 0.5q-0.75 0.375 -0.9375 1.0625q-0.1875 0.6875 -0.0625 1.5625q0.125 0.875 0.3125 1.8125q0.1875 0.9375 0.0625 1.8125q0.375 0.25 0.5625 0.625q0.1875 0.375 0.6875 0.375q0.5 0 0.75 -0.3125q0.25 -0.3125 0.4375 -0.875q0.1875 -0.5625 0.3125 -1.125q0.125 -0.5625 0.5 -0.9375q0.625 -0.625 1.125 -0.8125q0.5 -0.1875 0.75 -0.8125zm19.125 80.99999q1.0 0 1.375 -0.75q0.375 -0.75 0.25 -1.625q-0.625 -0.5 -1.0625 -0.25q-0.4375 0.25 -1.0625 0.5q-0.25 0.5 -0.1875 1.1875q0.0625 0.6875 0.6875 0.9375zm48.875 -58.875q-0.625 0 -1.0625 0.6875q-0.4375 0.6875 -0.3125 1.3125q0.625 0.25 1.375 0q0.75 -0.25 0.75 -0.875l-0.75 -1.125zm-36.625 56.625q0.75 -0.875 0.5625 -2.5q-0.1875 -1.625 -0.5625 -2.875q-0.875 -0.375 -1.375 -0.4375q-0.5 -0.0625 -1.125 0.6875q-0.375 0.5 -0.375 1.25q0 0.75 0.125 1.625q-0.375 0.5 -0.6875 1.0625q-0.3125 0.5625 -0.9375 0.8125q-0.5 0.25 -1.0 0.25q-0.5 0 -0.75 0.25q-0.625 0.625 -0.1875 1.3125q0.4375 0.6875 1.0625 0.8125q0.625 0.125 1.3125 -0.125q0.6875 -0.25 1.1875 -0.5q1.625 -0.5 1.9375 -1.0q0.3125 -0.5 0.8125 -0.625zm29.125 -47.875q1.375 -1.375 1.125 -3.625q-0.25 -2.25 0 -4.375q0.125 -0.625 0.125 -1.375q0 -0.75 0.125 -1.375q0.125 -1.125 0.5 -2.3125q0.375 -1.1875 0.25 -2.1875q0 -0.625 -0.375 -1.5625q-0.375 -0.9375 -0.625 -1.5625q-0.625 -1.0 -1.625 -2.1875q-1.0 -1.1875 -2.125 -1.6875q-1.0 -0.5 -2.625 -0.375q-1.625 0.125 -3.125 0q-2.625 -0.25 -4.3125 -0.125q-1.6875 0.125 -3.4375 0.375q-1.75 0.25 -3.5625 0.5625q-1.8125 0.3125 -3.1875 0.3125q-0.375 0 -0.75 -0.0625q-0.375 -0.0625 -0.75 -0.0625q-0.75 0.125 -1.4375 0.375q-0.6875 0.25 -1.5625 0.25q-0.5 1.0 -0.25 2.1875q0.25 1.1875 0.25 2.1875q0.125 1.75 0.125 3.5q0 1.75 0.25 3.5q0 0.875 0 1.625q0 0.75 0.25 1.25q0.25 1.5 -0.1875 1.5625q-0.4375 0.0625 -0.8125 0.4375q-0.25 0.25 -0.625 1.4375q-0.375 1.1875 0 1.9375q1.125 1.375 1.125 2.0q0 0.625 -0.0625 1.3125q-0.0625 0.6875 -0.0625 1.375q0 0.6875 0.25 1.4375q3.625 -0.125 7.0 -0.1875q3.375 -0.0625 7.0 -0.3125q0.75 0 1.25 -0.1875q0.5 -0.1875 1.125 -0.1875q1.0 0 2.0625 0q1.0625 0 1.9375 -0.25q1.75 -0.375 3.75 -1.4375q2.0 -1.0625 3.0 -2.1875zm8.375 4.75q0.375 -0.25 0.6875 -1.75q0.3125 -1.5 0.1875 -2.625q-0.125 -1.25 -0.625 -2.0q-0.5 -0.75 -1.75 -0.5q-0.25 0.875 -0.4375 1.625q-0.1875 0.75 -0.1875 1.625q-0.125 2.25 -1.75 3.0q-1.625 0.75 -2.625 1.375q1.25 1.875 2.5 1.1875q1.25 -0.6875 2.125 -1.0625q0.5 -0.25 1.0 -0.375q0.5 -0.125 0.875 -0.5zm19.625 -35.749992q1.625 -0.75 0.75 -2.75q-0.25 -0.375 -0.6875 -0.625q-0.4375 -0.25 -0.5625 -0.75q-1.625 -1.25 -3.6875 -1.1875q-2.0625 0.0625 -2.6875 1.4375q0.125 0.5 0.25 0.9375q0.125 0.4375 0.5 0.6875q0.625 -0.125 0.9375 -0.0625q0.3125 0.0625 0.9375 0.0625q0.25 0.375 0.6875 0.625q0.4375 0.25 0.8125 0.625q0.25 0.25 0.4375 0.5625q0.1875 0.3125 0.5625 0.4375q0.75 0.25 1.75 0zm10.0 31.624992q0.875 -2.125 0.25 -4.25q-0.25 -0.375 -0.875 -0.4375q-0.625 -0.0625 -1.0 0.3125q-0.5 0.375 -0.9375 1.9375q-0.4375 1.5625 -0.5625 2.1875q0 0.375 0.25 1.0625q0.25 0.6875 0.5 0.9375q0.875 0.875 1.5 -0.0625q0.625 -0.9375 0.875 -1.6875zm-112.25 -15.0q0.625 1.125 0.625 2.9375q0 1.8125 -1.375 1.9375q-0.625 0 -0.875 -0.3125q-0.25 -0.3125 -0.875 -0.4375q-0.625 -1.0 -0.5 -2.3125q0.125 -1.3125 0.625 -2.3125q0.25 -1.75 0.125 -3.4375q-0.125 -1.6875 -0.25 -3.4375q0 -0.875 0.0625 -1.8125q0.0625 -0.9375 -0.4375 -1.5625q0.5 -1.3749924 0.25 -2.9999924q-0.25 -1.625 -0.5625 -3.1875q-0.3125 -1.5625 -0.375 -3.125q-0.0625 -1.5625 0.8125 -2.9375q0.5 -0.375 1.3125 -0.625q0.8125 -0.25 1.1875 0.25q-0.625 0.75 -0.5625 0.9375q0.0625 0.1875 -0.0625 0.3125q-0.375 1.125 -0.25 1.4375q0.125 0.3125 0.25 0.6875q0.25 0.75 0.25 1.625q0 0.875 0.25 1.5q-0.125 2.875 0 5.75q0.25 2.7499924 0.375 5.5624924q0.125 2.8125 0 5.5625zm118.625 -18.499992q0.25 0.75 0.0625 1.875q-0.1875 1.125 -1.1875 1.0q-0.75 -0.125 -1.4375 -1.5q-0.6875 -1.375 -0.9375 -2.375q-0.125 -0.5 -0.3125 -0.875q-0.1875 -0.375 0.1875 -0.625q0.625 -0.125 2.0 0.8125q1.375 0.9375 1.625 1.6875zm-61.75 12.624992q0.75 2.0 -0.625 2.25q-1.375 0.25 -2.375 0q-1.0 -0.5 -0.875 -1.125q0.125 -0.625 0.875 -0.8125q0.75 -0.1875 1.5 -0.3125q0.375 0 0.8125 -0.0625q0.4375 -0.0625 0.6875 0.0625zm12.375 0.125q1.5 1.0 2.5 3.0q1.0 2.0 0 4.375q-0.625 0.125 -0.8125 -0.0625q-0.1875 -0.1875 -0.5625 -0.3125q-0.625 -0.75 -0.875 -1.5625q-0.25 -0.8125 -0.875 -1.4375q-0.625 -0.5 -1.3125 -0.8125q-0.6875 -0.3125 -0.9375 -1.1875q-0.625 -0.375 -1.1875 -0.1875q-0.5625 0.1875 -1.4375 0.3125q-0.5 0 -0.9375 -0.125q-0.4375 -0.125 -0.9375 -0.125q-1.5 0.125 -1.5 0q0 -0.125 -0.25 -0.125q-0.375 -0.75 0.8125 -1.4375q1.1875 -0.6875 2.1875 -0.6875q1.75 0.375 2.4375 0.125q0.6875 -0.25 1.3125 -0.125q0.625 0 1.25 0.0625q0.625 0.0625 1.125 0.3125zm47.0 31.625q0.75 0 0.9375 0.75q0.1875 0.75 0.4375 1.25q-0.25 0.5 -0.5 0.875q-0.25 0.375 -0.875 0.375q-1.125 -0.125 -1.0625 -1.625q0.0625 -1.5 1.0625 -1.625zm-3.75 4.0q0.375 -0.25 0.8125 0.1875q0.4375 0.4375 0.6875 0.6875q-0.25 0.5 -0.4375 1.0q-0.1875 0.5 -0.4375 0.875q-2.125 2.75 -5.75 3.875q-0.75 0.25 -1.4375 0.625q-0.6875 0.375 -1.3125 0.625q-1.125 0.375 -2.4375 0.5625q-1.3125 0.1875 -2.3125 0.5625q-0.5 0.25 -1.0625 0.3125q-0.5625 0.0625 -1.0625 0.1875q-2.625 0.5 -5.625 0.8125q-3.0 0.3125 -5.125 -0.6875q0 -0.5 -0.1875 -0.9375q-0.1875 -0.4375 0.0625 -0.6875q1.0 0.25 2.125 -0.1875q1.125 -0.4375 2.125 0.1875q2.375 -0.75 4.9375 -0.8125q2.5625 -0.0625 4.6875 -1.1875q2.375 -0.125 4.0625 -1.3125q1.6875 -1.1875 3.1875 -2.4375q2.5 -0.625 3.125 -1.1875q0.625 -0.5625 1.375 -1.0625zm-97.125 40.125q1.625 -0.625 3.4375 -0.625q1.8125 0 2.0625 2.0q-0.25 0.625 -0.75 0.5q-0.5 -0.125 -0.875 0q-0.625 0.125 -0.9375 0.25q-0.3125 0.125 -0.9375 0.25q-1.375 0.25 -2.75 0.6875q-1.375 0.4375 -2.625 0.5625q-1.0 0 -1.875 -0.0625q-0.875 -0.0625 -1.875 0.1875q-0.5 0 -0.9375 0.1875q-0.4375 0.1875 -0.8125 0.1875q-0.625 -0.125 -1.1875 -0.4375q-0.5625 -0.3125 -1.1875 -0.1875q-0.875 -1.0 -1.9375 -1.625q-1.0625 -0.625 -1.0625 -2.125q-0.125 -1.5 0.5 -2.9375q0.625 -1.4375 0.25 -2.9375q1.0 -0.5 1.375 0q0 1.125 0.1875 1.9375q0.1875 0.8125 0.4375 1.8125q0.125 0.5 0.1875 1.0625q0.0625 0.5625 0.1875 0.8125q0.25 0.75 1.4375 1.5q1.1875 0.75 2.0625 0.875q0.75 0.25 2.0625 0.1875q1.3125 -0.0625 2.0625 -0.3125q0.875 -0.25 1.75 -0.8125q0.875 -0.5625 1.75 -0.9375zm35.625 -3.75q1.375 0.5 1.4375 1.625q0.0625 1.125 -0.5625 1.75q-0.625 0.5 -1.5 0.5q-0.875 0 -1.625 -0.25q-0.5 -0.625 0.1875 -1.0625q0.6875 -0.4375 0.9375 -0.8125q0.5 -0.5 0.6875 -0.9375q0.1875 -0.4375 0.4375 -0.8125z" fill-rule="nonzero"/><path fill="#7fdbff" d="m225.32448 119.19431q-0.625 -0.125 -1.3125 -0.0625q-0.6875 0.0625 -1.25 0q-0.5625 -0.0625 -0.9375 -0.4375q-0.375 -0.375 -0.25 -1.375q0.875 -0.75 1.625 -0.75q0.75 0 1.375 -0.125q1.375 0.375 1.75 1.625q-0.375 0.875 -1.0 1.125zm-7.5 -0.125q-1.25 -0.375 -2.375 -0.0625q-1.125 0.3125 -2.25 0.8125q-0.25 0.25 -0.4375 0.75q-0.1875 0.5 -0.4375 1.0q-0.125 0.625 -0.3125 1.1875q-0.1875 0.5625 -0.1875 1.0625q-0.125 0.625 -0.0625 1.25q0.0625 0.625 -0.5625 0.875q-2.5 -1.125 -1.875 -3.625q0 -0.375 0.1875 -0.8125q0.1875 -0.4375 0.1875 -0.9375q0.125 -1.0 0.1875 -1.75q0.0625 -0.75 0.6875 -1.25q0.625 -0.625 1.4375 -0.5625q0.8125 0.0625 1.6875 0.0625q2.0 -0.5 2.6875 0q0.6875 0.5 1.5625 0.5q0.125 1.25 -0.125 1.5zm45.999985 69.87499q-0.125 0.75 0.125 1.375q0.25 0.625 0.25 1.25q0 1.125 -0.375 2.0625q-0.375 0.9375 -0.625 1.6875q-0.375 0.25 -0.75 0.375q-0.375 0.125 -0.5 0.625q-1.125 0.125 -2.125 0.5q-1.5 -0.25 -2.75 -0.1875q-1.2499847 0.0625 -2.6249847 -0.0625q-0.5 0 -1.375 -0.0625q-0.875 -0.0625 -1.5 -0.3125q-2.0 -0.875 -3.875 -1.875q-1.875 -1.0 -4.375 -0.75q-0.5 0 -0.875 0.1875q-0.375 0.1875 -0.875 -0.0625q-1.0 0.5 -2.0 0.5q-1.0 0 -1.75 0.5q-1.625 0.25 -3.125 0.5625q-1.5 0.3125 -3.25 0.1875q-0.75 -0.125 -1.5 -0.0625q-0.75 0.0625 -1.375 0.0625q-0.875 0 -1.75 -0.125q-0.875 -0.125 -1.875 -0.25q-1.375 0 -2.0 -0.125q-1.375 -0.125 -2.8125 -0.125q-1.4375 0 -2.75 -0.3125q-1.3125 -0.3125 -2.1875 -1.0q-0.875 -0.6875 -0.875 -2.4375q0 -0.375 0.1875 -0.75q0.1875 -0.375 0.1875 -0.75q-0.25 -1.375 -0.625 -2.8125q-0.375 -1.4375 0 -2.4375q0.875 -1.625 1.0 -2.1875q0.125 -0.5625 0.75 -1.0625q1.375 -0.5 2.8125 -0.75q1.4375 -0.25 3.1875 -0.25q0.25 -0.5 0.1875 -1.0625q-0.0625 -0.5625 0.0625 -1.1875q0.375 -0.25 0.5625 -0.6875q0.1875 -0.4375 0.8125 -0.5625q0.5 -1.0 0.8125 -1.8125q0.3125 -0.8125 0.0625 -1.8125q-0.25 -0.75 -0.875 -1.375q-0.625 -0.625 -0.625 -1.625q0 -0.75 0.25 -1.6875q0.25 -0.9375 0.375 -1.9375q0 -1.5 0.375 -1.9375q0.375 -0.4375 0.625 -0.8125q0.25 -1.375 0.5 -1.75q0.25 -0.375 0.5 -1.0q0.25 -1.125 0.4375 -2.0625q0.1875 -0.9375 0.1875 -2.3125q-0.125 -0.5 -0.0625 -1.0625q0.0625 -0.5625 -0.1875 -1.0625q-0.25 -0.75 -0.75 -1.3125q-0.5 -0.5625 -0.75 -1.1875q-0.25 -1.0 -0.4375 -2.0q-0.1875 -1.0 -0.0625 -2.0q0 -1.125 0.0625 -2.4375q0.0625 -1.3125 0.0625 -2.6875q0.25 -1.875 0 -3.25q-0.5 -1.75 -0.5 -2.25q0 -0.5 -0.5 -0.75q-1.25 0.25 -2.625 0.4375q-1.375 0.1875 -2.625 -0.1875q-0.875 -0.625 -1.875 -1.25q-1.0 -0.625 -1.375 -2.25q-0.25 -1.0 0.0625 -2.1875q0.3125 -1.1875 0.4375 -2.4375q0.125 -1.4999924 0 -2.7499924q-0.125 -1.25 0.125 -2.375q0.25 -0.875 0.875 -1.25q0.625 -0.375 1.0 -0.75q2.0 -0.25 4.0625 -0.3125q2.0625 -0.0625 4.0625 0.5625q0.375 1.125 1.625 1.625q1.25 0.5 2.25 0.125q0.375 -0.125 0.5625 -0.4375q0.1875 -0.3125 0.4375 -0.5625q1.25 -0.5 2.4375 -0.25q1.1875 0.25 2.5625 0q1.75 0.25 3.5 0.3125q1.75 0.0625 3.5 0.1875q0.625 0 1.125 0.0625q0.5 0.0625 1.125 0.5625q0.375 2.375 3.25 2.375q0.5 0 0.8125 -0.1875q0.3125 -0.1875 0.8125 -0.4375l1.5 0q1.75 -0.25 2.4375 0.0625q0.6875 0.3125 1.3125 0.3125q1.125 0 2.1249847 -0.5q0.875 -0.25 1.4375 -0.6875q0.5625 -0.4375 1.1875 -0.6875q0.875 0.125 1.9375 0.0625q1.0625 -0.0625 1.8125 0.0625q2.125 0.25 3.125 0.875q1.5 0.875 1.0 2.25q0.25 1.2499924 0.375 2.8749924q0.125 1.625 -0.0625 3.125q-0.1875 1.5 -0.6875 2.75q-0.5 1.25 -1.5 1.75q-0.625 -0.25 -1.1875 0.0625q-0.5625 0.3125 -1.0625 0.4375q-1.125 0.25 -2.3125 0.125q-1.1875 -0.125 -2.4375 0q-0.125 0.875 -0.3125 1.5q-0.1875 0.625 0.3125 1.125q-0.375 2.0 -0.375 3.5625q0 1.5625 -0.1875 3.0q-0.1875 1.4375 -0.625 2.6875q-0.4375 1.25 -1.4374847 2.0q-0.5 1.375 -0.5 2.6875q0 1.3125 0.25 2.5625q0.25 1.25 0.5 2.5625q0.25 1.3125 0.37498474 2.6875q0.125 0.625 -0.0625 1.25q-0.18748474 0.625 -0.31248474 1.25q-0.25 3.625 0.125 7.625q0.37498474 4.0 -0.5 8.375q1.3749847 0.375 2.5624847 0.3125q1.1875 -0.0625 2.5625 0.4375q0.375 0.25 0.6875 0.4375q0.3125 0.1875 0.6875 0.3125q0.875 0.375 1.4375 0.5625q0.5625 0.1875 0.8125 1.1875q0.125 0.25 0.125 0.75q0 0.5 0 1.0q0.125 1.0 -0.0625 1.6875q-0.1875 0.6875 -0.3125 1.4375zm-41.749985 1.5q0.625 -0.125 1.1875 -0.5625q0.5625 -0.4375 0.5625 -0.9375q-0.125 -0.375 -0.875 -0.875q-0.75 -0.5 -1.375 -0.75q-0.625 -0.25 -0.875 0q-0.25 0.25 -0.875 0.375q-0.25 0.625 -0.4375 1.0625q-0.1875 0.4375 -0.1875 1.3125q1.375 0.25 1.875 0.375q0.5 0.125 1.0 0zm5.75 -50.125q1.375 0.125 1.875 -0.1875q0.5 -0.3125 1.0 -0.6875q0.125 -1.375 0.75 -2.75q0.625 -1.375 0.5 -2.75q-0.125 -1.0 -0.625 -1.5625q-0.5 -0.5625 -0.875 -1.1875q-1.625 -0.375 -3.0 -0.875q-1.375 -0.5 -2.5 0.875q0.25 0.5 0.6875 0.5q0.4375 0 0.9375 0.25q0.75 0.375 1.25 1.75q0.375 0.875 0.3125 1.625q-0.0625 0.75 -0.1875 1.5q-0.125 0.875 0 1.8125q0.125 0.9375 -0.125 1.6875zm3.75 7.5q0.125 -0.875 0.25 -1.75q0.125 -0.875 -0.5 -1.375q-0.375 -0.375 -1.1875 -0.4375q-0.8125 -0.0625 -1.1875 0.1875q-0.375 0.625 -0.25 1.25q0.125 0.625 0.125 1.375q1.125 0.875 2.75 0.75zm40.124985 -15.0q-0.875 0.75 -1.1875 -0.0625q-0.3125 -0.8125 -0.1875 -1.6875q0.375 -0.5 0.9375 -0.4375q0.5625 0.0625 0.6875 0.6875q0.125 0.375 -0.125 0.625q-0.25 0.25 -0.125 0.875zm-0.125 2.75q0.5 0.625 0.5 1.4375q0 0.8125 -0.25 1.6875q-0.25 0.875 -0.5 1.6875q-0.25 0.8125 -0.375 1.4375q-0.25 0.125 -0.5625 0.3125q-0.3125 0.1875 -0.8125 0.3125q-0.5 0 -1.0625 -0.1875q-0.5625 -0.1875 -1.1875 -0.1875q-1.375 -0.375 -1.4375 -0.875q-0.0625 -0.5 -0.0625 -1.0q2.125 -0.375 3.25 -1.875q0.375 -0.625 0.4375 -1.5625q0.0625 -0.9375 0.3125 -1.5625q0.5 -0.375 1.0 -0.1875q0.5 0.1875 0.75 0.5625zm-13.375 41.125q0 -1.75 0.0625 -3.3125q0.0625 -1.5625 0.3125 -3.4375q0.125 -1.125 0.125 -2.125q0 -1.0 0.125 -1.75q0 -0.75 0.5 -1.625q0.5 -0.875 1.375 -0.25q0.125 0.25 0.125 0.6875q0 0.4375 0.125 0.6875q-0.25 2.125 -0.0625 4.75q0.1875 2.625 0.8125 4.625q0.5 0.5 1.0 0.9375q0.5 0.4375 1.5 0.5625q0.625 0.5 0.4375 1.375q-0.1875 0.875 -0.8125 1.125q-1.375 -0.375 -2.75 -0.625q-1.375 -0.25 -2.375 -0.875l-0.5 -0.75zm-41.624985 20.25q0.75 -0.25 2.375 -0.0625q1.625 0.1875 2.125 1.1875q-2.75 1.375 -5.125 1.625q-2.375 0.25 -4.25 -0.625q-1.75 -0.75 -1.6875 -2.25q0.0625 -1.5 0.1875 -2.75q0.125 -0.875 0.125 -1.9375q0 -1.0625 0.125 -1.9375q0.125 -0.875 0.5 -1.4375q0.375 -0.5625 1.25 -0.5625q0.625 0.5 0.6875 1.3125q0.0625 0.8125 0.1875 1.6875q0 0.875 -0.1875 1.625q-0.1875 0.75 -0.1875 1.375q0.125 1.625 1.125 2.125q1.0 0.5 2.75 0.625z" fill-rule="nonzero"/><path fill="#2ecc40" d="m282.57446 133.3193q-0.375 0.625 -1.125 1.0625q-0.75 0.4375 -1.5 0.1875q-0.5 -0.625 -0.375 -1.75q0.125 -1.125 0.25 -2.5q0.25 -2.0 -0.3125 -3.6249924q-0.5625 -1.625 -0.1875 -2.75q0.25 -1.0 1.125 -1.1875q0.875 -0.1875 1.625 -0.6875q1.75 0.25 3.75 0.0625q2.0 -0.1875 3.5 0.4375q1.625 0.125 3.5 -0.6875q1.875 -0.8125 3.25 -1.0625q0.75 -0.125 1.5625 0.75q0.8125 0.875 -0.1875 1.75q-2.25 1.0 -4.8125 0.625q-2.5625 -0.375 -5.0625 0.25q-1.875 0.125 -2.625 0.5q-0.75 0.375 -1.75 0.75q-0.625 0.375 -0.5 1.125q0.125 0.75 0 1.7499924q-0.125 1.5 -0.375 2.6875q-0.25 1.1875 0.25 2.3125zm37.875 -10.374992q-0.375 -0.25 -0.875 -0.4375q-0.5 -0.1875 -0.5 -0.8125q0 -0.625 0.5625 -0.5625q0.5625 0.0625 1.1875 -0.0625q0.375 0 0.6875 -0.1875q0.3125 -0.1875 0.6875 -0.3125q1.75 -0.125 2.5 -0.3125q0.75 -0.1875 1.625 0.4375q0.625 0.5 0.25 1.25q-0.375 0.75 -1.25 1.125q-0.5 0.125 -1.25 0.0625q-0.75 -0.0625 -1.5 0.0625q-0.375 0 -0.75 0.125q-0.375 0.125 -0.625 0l-0.75 -0.375zm52.875 8.999992q0.75 1.625 1.0625 3.5625q0.3125 1.9375 0.8125 3.6875q0.125 0.625 0.25 1.125q0.125 0.5 -0.125 1.375q-0.25 1.125 -0.9375 2.1875q-0.6875 1.0625 -0.5625 2.6875q0.25 1.25 0.6875 2.3125q0.4375 1.0625 1.0625 2.0625q0 0.875 0.25 1.875q0.25 1.0 -0.5 1.5q0.5 0.625 0.4375 1.4375q-0.0625 0.8125 -0.6875 1.0625q-0.25 0.875 -0.4375 1.6875q-0.1875 0.8125 -0.4375 1.8125q-0.75 0.75 -0.875 1.125q-0.5 1.25 -1.125 2.0q-0.25 0.5 -0.625 0.875q-0.375 0.375 -0.75 0.875q-0.75 1.125 -1.875 2.25q-0.625 0.375 -1.3125 0.6875q-0.6875 0.3125 -1.3125 0.5625q-0.375 0.25 -0.8125 0.5q-0.4375 0.25 -0.8125 0.5q-1.5 0.375 -2.1875 0.5625q-0.6875 0.1875 -1.3125 0.4375q-0.625 0.25 -1.0625 0.375q-0.4375 0.125 -0.9375 0.25q-1.25 0.375 -1.875 0.125q-0.625 -0.25 -1.25 -0.25q-2.125 0.25 -3.1875 0.25q-1.0625 0 -2.0625 0q-3.0 0.5 -4.8125 0.5q-1.8125 0 -3.9375 0.25q-2.625 0.25 -5.25 0.25q-2.625 0 -5.25 0.25q-2.375 0.25 -4.6875 0.3125q-2.3125 0.0625 -4.4375 0.4375q-0.25 0.625 -0.125 1.5625q0.125 0.9375 0.1875 1.875q0.0625 0.9375 0 1.8125q-0.0625 0.875 -0.4375 1.625q-0.25 0.25 -0.5625 0.4375q-0.3125 0.1875 -0.5625 0.5625q0.125 1.125 0.5 1.875q0.375 0.75 0.875 1.375q0.25 1.5 0.3125 3.25q0.0625 1.75 0.0625 3.25q0 1.375 -0.3125 2.375q-0.3125 1.0 -0.5625 2.0q-0.625 0.125 -1.0 0.5625q-0.375 0.4375 -0.875 0.6875q-1.875 0.25 -2.625 0.375q-0.75 0.125 -1.625 0.125q-1.125 -0.25 -1.25 -0.1875q-0.125 0.0625 -0.375 0.0625q-0.25 0 -0.625 -0.1875q-0.375 -0.1875 -0.75 -0.3125q-1.375 0.125 -1.6875 0q-0.3125 -0.125 -0.6875 -0.25q-0.75 0 -1.4375 0.0625q-0.6875 0.0625 -1.3125 0.1875q-1.75 0.25 -3.3125 1.25q-1.5625 1.0 -3.1875 1.125q-0.875 0 -1.8125 -0.125q-0.9375 -0.125 -1.8125 -0.125q-1.25 0 -1.5 -0.1875q-0.25 -0.1875 -0.5 -0.3125q-0.625 -0.25 -1.3125 -0.1875q-0.6875 0.0625 -1.3125 -0.0625q-0.75 -0.25 -1.3125 -0.625q-0.5625 -0.375 -1.1875 -0.5q-0.25 -0.25 -0.5 -0.5625q-0.25 -0.3125 -0.625 -0.6875q-0.5 -0.25 -0.9375 -0.4375q-0.4375 -0.1875 -0.5625 -0.4375q-0.25 -0.625 -0.3125 -1.875q-0.0625 -1.25 -0.3125 -2.125q-0.125 -0.625 -0.1875 -1.3125q-0.0625 -0.6875 -0.0625 -1.1875q-0.25 -1.625 0 -3.375q0 -0.625 0.625 -1.25q0.625 -0.625 0.875 -1.25q0.125 -0.25 0.4375 -1.1875q0.3125 -0.9375 0.3125 -1.3125q0 -1.0 -0.4375 -2.0625q-0.4375 -1.0625 -0.6875 -2.0625q-0.25 -0.625 -0.875 -1.5q-0.625 -0.875 -0.75 -1.625l0 -2.375q0 -3.75 -0.1875 -7.75q-0.1875 -4.0 0.0625 -8.0q-0.25 -2.875 0.1875 -4.5625q0.4375 -1.6875 0.6875 -3.5625q-0.375 -1.125 0 -1.8125q0.375 -0.6875 0.125 -1.9375q-0.125 -0.75 -0.4375 -1.75q-0.3125 -1.0 -0.5625 -1.5q-0.625 -1.625 -0.4375 -2.25q0.1875 -0.625 0.0625 -1.25q-0.375 -1.25 -0.5 -2.75q-0.25 -1.25 -0.5 -1.75q0.25 -1.0 0.5 -2.125q0.25 -1.125 1.125 -1.7499924q0.875 -0.625 2.1875 -0.8125q1.3125 -0.1875 2.4375 -0.1875q1.0 -0.125 2.1875 -0.3125q1.1875 -0.1875 2.1875 -0.4375q1.0 -0.25 2.25 -0.125q1.25 0.125 2.625 -0.125q0.875 -0.125 1.625 -0.1875q0.75 -0.0625 1.5 -0.0625q0.875 0 1.6875 -0.1875q0.8125 -0.1875 1.4375 -0.3125q1.0 -0.125 2.1875 0q1.1875 0.125 2.4375 0q1.0 -0.25 1.625 -0.25q1.75 -0.125 3.875 -0.3125q2.125 -0.1875 3.875 0.4375q1.25 1.0 3.125 1.125q1.875 0.125 3.625 -0.625q1.375 -0.875 2.0625 -1.0625q0.6875 -0.1875 1.3125 -0.1875q0.625 0 1.0625 0.125q0.4375 0.125 1.0625 0.125q1.75 0.125 3.75 -0.1875q2.0 -0.3125 4.125 -0.4375q1.0 -0.125 1.875 -0.0625q0.875 0.0625 1.875 -0.0625q1.25 -0.625 1.875 -0.4375q0.625 0.1875 1.25 0.0625q1.5 -0.25 3.0625 -0.5q1.5625 -0.25 3.0625 -0.375q0.75 -0.125 1.5625 0q0.8125 0.125 1.5625 -0.125q1.375 0.25 2.8125 0.3125q1.4375 0.0625 2.5625 0.6875q1.125 -0.375 1.8125 0.0625q0.6875 0.4375 1.125 1.1875q0.4375 0.75 0.875 1.5625q0.4375 0.8125 1.1875 1.1875q1.5 0.25 2.5625 0.875q1.0625 0.6249924 2.1875 1.2499924q0.25 0.75 0.6875 1.4375q0.4375 0.6875 0.6875 1.4375zm-78.25 61.5q1.0 -0.75 0.75 -2.375q-0.25 -1.625 -1.375 -1.875q-0.5 0.25 -0.75 0.125q-0.25 -0.125 -0.625 -0.25q-0.5 0.625 -0.5625 1.375q-0.0625 0.75 0.1875 1.4375q0.25 0.6875 0.8125 1.1875q0.5625 0.5 1.5625 0.375zm-1.625 -60.875q0.25 -0.5 0.5625 -0.875q0.3125 -0.375 -0.1875 -0.875q-1.5 0.125 -2.5 0.625q-1.0 0.5 -1.125 1.875q-0.125 1.0 0.1875 1.875q0.3125 0.875 0.5625 1.5q1.5 -0.875 2.125 -2.375q0.125 -0.375 0.125 -0.8125q0 -0.4375 0.25 -0.9375zm19.875 22.0q1.375 -0.25 1.875 -1.75q0.5 -1.5 -0.875 -2.25q-1.25 -0.25 -1.8125 0.0625q-0.5625 0.3125 -0.875 1.0625q-0.3125 0.75 -0.125 1.625q0.1875 0.875 0.9375 1.125l0.875 0.125zm2.5 -17.0q0.75 -1.375 2.1875 -1.75q1.4375 -0.375 2.8125 -1.375q-0.5 -1.0 -1.3125 -1.25q-0.8125 -0.25 -1.75 -0.125q-0.9375 0.125 -1.9375 0.5q-1.0 0.375 -1.875 0.5q-1.125 1.0 -0.875 2.75q0.25 1.75 0 3.25q-0.125 1.375 -0.375 3.0q-0.25 1.625 0.125 3.0q1.125 0 1.625 -0.75q0.25 -1.375 0.3125 -1.5q0.0625 -0.125 0.1875 -0.375q-0.125 -2.5 0.0625 -3.75q0.1875 -1.25 0.8125 -2.125zm28.5 14.75q0.125 -1.375 -0.375 -2.875q-0.5 -1.5 -0.75 -2.75q-0.375 -1.875 -0.3125 -3.75q0.0625 -1.875 -1.1875 -3.0q-1.0 -1.0 -2.5625 -1.5q-1.5625 -0.5 -3.4375 -0.25q-0.875 -0.625 -1.4375 -1.4375q-0.5625 -0.8125 -1.9375 -0.5625q-0.625 0.125 -1.1875 0.875q-0.5625 0.75 -1.0625 0.875q-2.25 0.375 -3.3125 0.5625q-1.0625 0.1875 -2.0625 0.4375q-0.625 -0.375 -1.8125 -0.1875q-1.1875 0.1875 -1.8125 0.4375q-0.75 5.0 -0.375 9.6875q0.375 4.6875 1.0 8.9375q1.75 -0.125 3.125 -0.1875q1.375 -0.0625 2.875 -0.0625q0.25 0 0.8125 -0.1875q0.5625 -0.1875 1.0625 -0.1875q1.125 -0.25 2.0625 -0.25q0.9375 0 1.9375 0q0.75 0 1.5 0.0625q0.75 0.0625 1.375 -0.0625q2.0 -0.625 3.0 -0.6875q1.0 -0.0625 1.625 -0.8125q0.875 -1.625 1.125 -1.875q0.25 -0.25 0.5 -0.625q0.5 -0.25 0.875 -0.3125q0.375 -0.0625 0.75 -0.3125zm22.875 6.625q0.375 -0.875 0.625 -2.1875q0.25 -1.3125 -0.125 -2.3125q-1.0 -0.375 -1.8125 0.5q-0.8125 0.875 -0.9375 2.0q-0.125 1.0 -0.1875 1.25q-0.0625 0.25 -0.6875 0.875q-1.375 1.25 -2.0625 1.5q-0.6875 0.25 -0.8125 0.625q-0.25 0.625 0.3125 1.625q0.5625 1.0 1.1875 1.0q0.375 0 0.75 -0.3125q0.375 -0.3125 0.75 -0.0625q2.125 -1.75 3.0 -4.5zm0.75 -8.875q0.875 0.25 1.3125 -0.6875q0.4375 -0.9375 -0.1875 -1.5625q-1.25 -0.25 -1.5625 0.9375q-0.3125 1.1875 0.4375 1.3125zm-28.875 -8.625q0.875 0.625 0.6875 1.6875q-0.1875 1.0625 -0.3125 2.0625q-1.5 -1.125 -2.8125 -1.8125q-1.3125 -0.6875 -2.6875 -0.0625q-1.5 -0.375 -3.0625 0.1875q-1.5625 0.5625 -2.8125 -0.0625q-0.375 -0.875 -0.125 -1.375q0.25 -0.5 0.9375 -0.75q0.6875 -0.25 1.5 -0.375q0.8125 -0.125 1.5625 -0.125q1.0 0 1.9375 -0.125q0.9375 -0.125 1.6875 -0.375q0.75 -0.125 1.4375 0.25q0.6875 0.375 1.1875 0.625l0.875 0.25zm-2.125 34.75q-0.125 -1.0 0.5625 -1.5625q0.6875 -0.5625 1.625 -0.625q0.9375 -0.0625 1.75 0.375q0.8125 0.4375 0.8125 1.4375q-0.75 0.875 -1.6875 0.875q-0.9375 0 -2.1875 0.25l-0.875 -0.75zm-3.25 -1.125q-0.625 1.5 -1.25 1.875q-0.625 0.375 -1.25 0.875q-0.625 0.625 -1.5625 1.4375q-0.9375 0.8125 -1.0625 1.8125q0.125 1.375 -0.0625 1.6875q-0.1875 0.3125 -0.1875 0.5625q0.125 0.5 0.375 1.0q0.25 0.5 0.25 1.125q-0.125 0.875 -0.1875 1.75q-0.0625 0.875 -0.5625 1.5q-2.375 -0.75 -2.125 -2.4375q0.25 -1.6875 1.0 -2.5625q-0.25 -1.625 -0.75 -2.0q-0.125 -2.25 0.1875 -3.8125q0.3125 -1.5625 1.9375 -2.3125q1.125 -0.625 2.5625 -0.5q1.4375 0.125 2.6875 0zm-40.375 25.75q0.375 0 1.3125 0q0.9375 0 1.3125 0.375q-0.25 1.0 -1.75 1.4375q-1.5 0.4375 -2.875 0.6875q-1.0 0.125 -2.0625 0.0625q-1.0625 -0.0625 -1.1875 -1.3125q-0.875 0 -1.4375 -0.25q-0.5625 -0.25 -1.1875 -0.5q-0.375 -1.375 -0.9375 -2.9375q-0.5625 -1.5625 -0.0625 -3.0625q0.75 -0.25 1.375 0.25q0.625 0.5 0.75 0.75q0.375 0.625 0.25 1.3125q-0.125 0.6875 0.125 1.3125q0.5 -0.125 1.0625 -0.3125q0.5625 -0.1875 1.0625 -0.6875q0.875 0.25 0.625 1.625q1.25 0.75 2.0625 0.875q0.8125 0.125 1.5625 0.375z" fill-rule="nonzero"/><path fill="#ff851b" d="m388.19946 133.3193q-0.375 0.625 -1.125 1.0625q-0.75 0.4375 -1.5 0.1875q-0.5 -0.625 -0.375 -1.75q0.125 -1.125 0.25 -2.5q0.25 -2.0 -0.3125 -3.6249924q-0.5625 -1.625 -0.1875 -2.75q0.25 -1.0 1.125 -1.1875q0.875 -0.1875 1.625 -0.6875q1.75 0.25 3.75 0.0625q2.0 -0.1875 3.5 0.4375q1.625 0.125 3.5 -0.6875q1.875 -0.8125 3.25 -1.0625q0.75 -0.125 1.5625 0.75q0.8125 0.875 -0.1875 1.75q-2.25 1.0 -4.8125 0.625q-2.5625 -0.375 -5.0625 0.25q-1.875 0.125 -2.625 0.5q-0.75 0.375 -1.75 0.75q-0.625 0.375 -0.5 1.125q0.125 0.75 0 1.7499924q-0.125 1.5 -0.375 2.6875q-0.25 1.1875 0.25 2.3125zm37.875 -10.374992q-0.375 -0.25 -0.875 -0.4375q-0.5 -0.1875 -0.5 -0.8125q0 -0.625 0.5625 -0.5625q0.5625 0.0625 1.1875 -0.0625q0.375 0 0.6875 -0.1875q0.3125 -0.1875 0.6875 -0.3125q1.75 -0.125 2.5 -0.3125q0.75 -0.1875 1.625 0.4375q0.625 0.5 0.25 1.25q-0.375 0.75 -1.25 1.125q-0.5 0.125 -1.25 0.0625q-0.75 -0.0625 -1.5 0.0625q-0.375 0 -0.75 0.125q-0.375 0.125 -0.625 0l-0.75 -0.375zm52.875 8.999992q0.75 1.625 1.0625 3.5625q0.3125 1.9375 0.8125 3.6875q0.125 0.625 0.25 1.125q0.125 0.5 -0.125 1.375q-0.25 1.125 -0.9375 2.1875q-0.6875 1.0625 -0.5625 2.6875q0.25 1.25 0.6875 2.3125q0.4375 1.0625 1.0625 2.0625q0 0.875 0.25 1.875q0.25 1.0 -0.5 1.5q0.5 0.625 0.4375 1.4375q-0.0625 0.8125 -0.6875 1.0625q-0.25 0.875 -0.4375 1.6875q-0.1875 0.8125 -0.4375 1.8125q-0.75 0.75 -0.875 1.125q-0.5 1.25 -1.125 2.0q-0.25 0.5 -0.625 0.875q-0.375 0.375 -0.75 0.875q-0.75 1.125 -1.875 2.25q-0.625 0.375 -1.3125 0.6875q-0.6875 0.3125 -1.3125 0.5625q-0.375 0.25 -0.8125 0.5q-0.4375 0.25 -0.8125 0.5q-1.5 0.375 -2.1875 0.5625q-0.6875 0.1875 -1.3125 0.4375q-0.625 0.25 -1.0625 0.375q-0.4375 0.125 -0.9375 0.25q-1.25 0.375 -1.875 0.125q-0.625 -0.25 -1.25 -0.25q-2.125 0.25 -3.1875 0.25q-1.0625 0 -2.0625 0q-3.0 0.5 -4.8125 0.5q-1.8125 0 -3.9375 0.25q-2.625 0.25 -5.25 0.25q-2.625 0 -5.25 0.25q-2.375 0.25 -4.6875 0.3125q-2.3125 0.0625 -4.4375 0.4375q-0.25 0.625 -0.125 1.5625q0.125 0.9375 0.1875 1.875q0.0625 0.9375 0 1.8125q-0.0625 0.875 -0.4375 1.625q-0.25 0.25 -0.5625 0.4375q-0.3125 0.1875 -0.5625 0.5625q0.125 1.125 0.5 1.875q0.375 0.75 0.875 1.375q0.25 1.5 0.3125 3.25q0.0625 1.75 0.0625 3.25q0 1.375 -0.3125 2.375q-0.3125 1.0 -0.5625 2.0q-0.625 0.125 -1.0 0.5625q-0.375 0.4375 -0.875 0.6875q-1.875 0.25 -2.625 0.375q-0.75 0.125 -1.625 0.125q-1.125 -0.25 -1.25 -0.1875q-0.125 0.0625 -0.375 0.0625q-0.25 0 -0.625 -0.1875q-0.375 -0.1875 -0.75 -0.3125q-1.375 0.125 -1.6875 0q-0.3125 -0.125 -0.6875 -0.25q-0.75 0 -1.4375 0.0625q-0.6875 0.0625 -1.3125 0.1875q-1.75 0.25 -3.3125 1.25q-1.5625 1.0 -3.1875 1.125q-0.875 0 -1.8125 -0.125q-0.9375 -0.125 -1.8125 -0.125q-1.25 0 -1.5 -0.1875q-0.25 -0.1875 -0.5 -0.3125q-0.625 -0.25 -1.3125 -0.1875q-0.6875 0.0625 -1.3125 -0.0625q-0.75 -0.25 -1.3125 -0.625q-0.5625 -0.375 -1.1875 -0.5q-0.25 -0.25 -0.5 -0.5625q-0.25 -0.3125 -0.625 -0.6875q-0.5 -0.25 -0.9375 -0.4375q-0.4375 -0.1875 -0.5625 -0.4375q-0.25 -0.625 -0.3125 -1.875q-0.0625 -1.25 -0.3125 -2.125q-0.125 -0.625 -0.1875 -1.3125q-0.0625 -0.6875 -0.0625 -1.1875q-0.25 -1.625 0 -3.375q0 -0.625 0.625 -1.25q0.625 -0.625 0.875 -1.25q0.125 -0.25 0.4375 -1.1875q0.3125 -0.9375 0.3125 -1.3125q0 -1.0 -0.4375 -2.0625q-0.4375 -1.0625 -0.6875 -2.0625q-0.25 -0.625 -0.875 -1.5q-0.625 -0.875 -0.75 -1.625l0 -2.375q0 -3.75 -0.1875 -7.75q-0.1875 -4.0 0.0625 -8.0q-0.25 -2.875 0.1875 -4.5625q0.4375 -1.6875 0.6875 -3.5625q-0.375 -1.125 0 -1.8125q0.375 -0.6875 0.125 -1.9375q-0.125 -0.75 -0.4375 -1.75q-0.3125 -1.0 -0.5625 -1.5q-0.625 -1.625 -0.4375 -2.25q0.1875 -0.625 0.0625 -1.25q-0.375 -1.25 -0.5 -2.75q-0.25 -1.25 -0.5 -1.75q0.25 -1.0 0.5 -2.125q0.25 -1.125 1.125 -1.7499924q0.875 -0.625 2.1875 -0.8125q1.3125 -0.1875 2.4375 -0.1875q1.0 -0.125 2.1875 -0.3125q1.1875 -0.1875 2.1875 -0.4375q1.0 -0.25 2.25 -0.125q1.25 0.125 2.625 -0.125q0.875 -0.125 1.625 -0.1875q0.75 -0.0625 1.5 -0.0625q0.875 0 1.6875 -0.1875q0.8125 -0.1875 1.4375 -0.3125q1.0 -0.125 2.1875 0q1.1875 0.125 2.4375 0q1.0 -0.25 1.625 -0.25q1.75 -0.125 3.875 -0.3125q2.125 -0.1875 3.875 0.4375q1.25 1.0 3.125 1.125q1.875 0.125 3.625 -0.625q1.375 -0.875 2.0625 -1.0625q0.6875 -0.1875 1.3125 -0.1875q0.625 0 1.0625 0.125q0.4375 0.125 1.0625 0.125q1.75 0.125 3.75 -0.1875q2.0 -0.3125 4.125 -0.4375q1.0 -0.125 1.875 -0.0625q0.875 0.0625 1.875 -0.0625q1.25 -0.625 1.875 -0.4375q0.625 0.1875 1.25 0.0625q1.5 -0.25 3.0625 -0.5q1.5625 -0.25 3.0625 -0.375q0.75 -0.125 1.5625 0q0.8125 0.125 1.5625 -0.125q1.375 0.25 2.8125 0.3125q1.4375 0.0625 2.5625 0.6875q1.125 -0.375 1.8125 0.0625q0.6875 0.4375 1.125 1.1875q0.4375 0.75 0.875 1.5625q0.4375 0.8125 1.1875 1.1875q1.5 0.25 2.5625 0.875q1.0625 0.6249924 2.1875 1.2499924q0.25 0.75 0.6875 1.4375q0.4375 0.6875 0.6875 1.4375zm-78.25 61.5q1.0 -0.75 0.75 -2.375q-0.25 -1.625 -1.375 -1.875q-0.5 0.25 -0.75 0.125q-0.25 -0.125 -0.625 -0.25q-0.5 0.625 -0.5625 1.375q-0.0625 0.75 0.1875 1.4375q0.25 0.6875 0.8125 1.1875q0.5625 0.5 1.5625 0.375zm-1.625 -60.875q0.25 -0.5 0.5625 -0.875q0.3125 -0.375 -0.1875 -0.875q-1.5 0.125 -2.5 0.625q-1.0 0.5 -1.125 1.875q-0.125 1.0 0.1875 1.875q0.3125 0.875 0.5625 1.5q1.5 -0.875 2.125 -2.375q0.125 -0.375 0.125 -0.8125q0 -0.4375 0.25 -0.9375zm19.875 22.0q1.375 -0.25 1.875 -1.75q0.5 -1.5 -0.875 -2.25q-1.25 -0.25 -1.8125 0.0625q-0.5625 0.3125 -0.875 1.0625q-0.3125 0.75 -0.125 1.625q0.1875 0.875 0.9375 1.125l0.875 0.125zm2.5 -17.0q0.75 -1.375 2.1875 -1.75q1.4375 -0.375 2.8125 -1.375q-0.5 -1.0 -1.3125 -1.25q-0.8125 -0.25 -1.75 -0.125q-0.9375 0.125 -1.9375 0.5q-1.0 0.375 -1.875 0.5q-1.125 1.0 -0.875 2.75q0.25 1.75 0 3.25q-0.125 1.375 -0.375 3.0q-0.25 1.625 0.125 3.0q1.125 0 1.625 -0.75q0.25 -1.375 0.3125 -1.5q0.0625 -0.125 0.1875 -0.375q-0.125 -2.5 0.0625 -3.75q0.1875 -1.25 0.8125 -2.125zm28.5 14.75q0.125 -1.375 -0.375 -2.875q-0.5 -1.5 -0.75 -2.75q-0.375 -1.875 -0.3125 -3.75q0.0625 -1.875 -1.1875 -3.0q-1.0 -1.0 -2.5625 -1.5q-1.5625 -0.5 -3.4375 -0.25q-0.875 -0.625 -1.4375 -1.4375q-0.5625 -0.8125 -1.9375 -0.5625q-0.625 0.125 -1.1875 0.875q-0.5625 0.75 -1.0625 0.875q-2.25 0.375 -3.3125 0.5625q-1.0625 0.1875 -2.0625 0.4375q-0.625 -0.375 -1.8125 -0.1875q-1.1875 0.1875 -1.8125 0.4375q-0.75 5.0 -0.375 9.6875q0.375 4.6875 1.0 8.9375q1.75 -0.125 3.125 -0.1875q1.375 -0.0625 2.875 -0.0625q0.25 0 0.8125 -0.1875q0.5625 -0.1875 1.0625 -0.1875q1.125 -0.25 2.0625 -0.25q0.9375 0 1.9375 0q0.75 0 1.5 0.0625q0.75 0.0625 1.375 -0.0625q2.0 -0.625 3.0 -0.6875q1.0 -0.0625 1.625 -0.8125q0.875 -1.625 1.125 -1.875q0.25 -0.25 0.5 -0.625q0.5 -0.25 0.875 -0.3125q0.375 -0.0625 0.75 -0.3125zm22.875 6.625q0.375 -0.875 0.625 -2.1875q0.25 -1.3125 -0.125 -2.3125q-1.0 -0.375 -1.8125 0.5q-0.8125 0.875 -0.9375 2.0q-0.125 1.0 -0.1875 1.25q-0.0625 0.25 -0.6875 0.875q-1.375 1.25 -2.0625 1.5q-0.6875 0.25 -0.8125 0.625q-0.25 0.625 0.3125 1.625q0.5625 1.0 1.1875 1.0q0.375 0 0.75 -0.3125q0.375 -0.3125 0.75 -0.0625q2.125 -1.75 3.0 -4.5zm0.75 -8.875q0.875 0.25 1.3125 -0.6875q0.4375 -0.9375 -0.1875 -1.5625q-1.25 -0.25 -1.5625 0.9375q-0.3125 1.1875 0.4375 1.3125zm-28.875 -8.625q0.875 0.625 0.6875 1.6875q-0.1875 1.0625 -0.3125 2.0625q-1.5 -1.125 -2.8125 -1.8125q-1.3125 -0.6875 -2.6875 -0.0625q-1.5 -0.375 -3.0625 0.1875q-1.5625 0.5625 -2.8125 -0.0625q-0.375 -0.875 -0.125 -1.375q0.25 -0.5 0.9375 -0.75q0.6875 -0.25 1.5 -0.375q0.8125 -0.125 1.5625 -0.125q1.0 0 1.9375 -0.125q0.9375 -0.125 1.6875 -0.375q0.75 -0.125 1.4375 0.25q0.6875 0.375 1.1875 0.625l0.875 0.25zm-2.125 34.75q-0.125 -1.0 0.5625 -1.5625q0.6875 -0.5625 1.625 -0.625q0.9375 -0.0625 1.75 0.375q0.8125 0.4375 0.8125 1.4375q-0.75 0.875 -1.6875 0.875q-0.9375 0 -2.1875 0.25l-0.875 -0.75zm-3.25 -1.125q-0.625 1.5 -1.25 1.875q-0.625 0.375 -1.25 0.875q-0.625 0.625 -1.5625 1.4375q-0.9375 0.8125 -1.0625 1.8125q0.125 1.375 -0.0625 1.6875q-0.1875 0.3125 -0.1875 0.5625q0.125 0.5 0.375 1.0q0.25 0.5 0.25 1.125q-0.125 0.875 -0.1875 1.75q-0.0625 0.875 -0.5625 1.5q-2.375 -0.75 -2.125 -2.4375q0.25 -1.6875 1.0 -2.5625q-0.25 -1.625 -0.75 -2.0q-0.125 -2.25 0.1875 -3.8125q0.3125 -1.5625 1.9375 -2.3125q1.125 -0.625 2.5625 -0.5q1.4375 0.125 2.6875 0zm-40.375 25.75q0.375 0 1.3125 0q0.9375 0 1.3125 0.375q-0.25 1.0 -1.75 1.4375q-1.5 0.4375 -2.875 0.6875q-1.0 0.125 -2.0625 0.0625q-1.0625 -0.0625 -1.1875 -1.3125q-0.875 0 -1.4375 -0.25q-0.5625 -0.25 -1.1875 -0.5q-0.375 -1.375 -0.9375 -2.9375q-0.5625 -1.5625 -0.0625 -3.0625q0.75 -0.25 1.375 0.25q0.625 0.5 0.75 0.75q0.375 0.625 0.25 1.3125q-0.125 0.6875 0.125 1.3125q0.5 -0.125 1.0625 -0.3125q0.5625 -0.1875 1.0625 -0.6875q0.875 0.25 0.625 1.625q1.25 0.75 2.0625 0.875q0.8125 0.125 1.5625 0.375z" fill-rule="nonzero"/><path fill="#ff4136" d="m511.07446 122.19431q-0.5 0.125 -0.8125 0.375q-0.3125 0.25 -0.9375 0q-0.75 -0.75 0.125 -2.125q0.5 -0.25 0.9375 -0.5q0.4375 -0.25 0.9375 -0.375q0.625 -0.375 1.125 -0.75q0.5 -0.375 1.25 -0.5q1.25 -0.75 2.5 -1.5625q1.25 -0.8125 3.0 -0.4375q1.5 0.25 1.75 0.5625q0.25 0.3125 0 0.9375q-0.5 0.25 -1.0625 0.3125q-0.5625 0.0625 -1.1875 0.3125q-0.5 0.125 -0.875 0.3125q-0.375 0.1875 -0.75 0.4375q-0.625 0.25 -1.375 0.25q-0.75 0 -1.125 0.625q-2.125 0.625 -3.5 2.125zm72.125 63.249992q-1.25 0.875 -1.875 1.875q-3.0 2.125 -6.0625 4.25q-3.0625 2.125 -6.5625 3.75q-1.375 0.875 -2.3125 1.1875q-0.9375 0.3125 -1.9375 0.6875q-0.5 0.125 -0.75 0.375q-0.25 0.25 -0.5 0.375q-1.625 0.375 -2.25 0.625q-0.625 0.25 -1.25 0.5q-0.5 0.125 -1.5 0.625q-1.5 0.5 -3.4375 0.3125q-1.9375 -0.1875 -3.9375 0.0625q-0.75 0.125 -1.75 0.25q-1.0 0.125 -2.0 0.375q-1.0 -0.25 -2.4375 -0.25q-1.4375 0 -2.8125 -0.125q-0.875 -0.125 -1.75 -0.375q-0.875 -0.25 -1.875 -0.375q-1.25 -0.125 -2.5 -0.1875q-1.25 -0.0625 -2.625 -0.4375q-1.625 0.25 -2.8125 -0.25q-1.1875 -0.5 -2.5625 -0.375q-0.75 -0.25 -1.6875 -0.4375q-0.9375 -0.1875 -1.75 -0.4375q-0.8125 -0.25 -1.375 -0.75q-0.5625 -0.5 -0.4375 -1.5q-0.625 -0.875 -1.8125 -1.375q-1.1875 -0.5 -2.3125 -1.0q-0.875 -0.125 -1.5 0.25q-0.625 0.375 -1.375 0.375q-0.375 0.125 -0.9375 0q-0.5625 -0.125 -1.0625 -0.25q-1.0 -0.25 -1.6875 -0.625q-0.6875 -0.375 -1.6875 -1.0q-0.375 -0.25 -0.75 -0.25q-0.375 0 -0.75 -0.25q-1.0 -0.625 -1.875 -1.3125q-0.875 -0.6875 -1.875 -0.9375q-1.875 -2.5 -3.75 -4.75q-1.875 -2.25 -3.0 -5.25q-0.625 -0.75 -0.9375 -1.5625q-0.3125 -0.8125 -0.6875 -1.8125q-0.25 -0.25 -0.5625 -0.5q-0.3125 -0.25 -0.8125 -0.5q-1.125 -1.375 -1.8125 -3.125q-0.6875 -1.75 -1.6875 -3.125q-0.5 -3.625 -1.0625 -7.4375q-0.5625 -3.8125 0.9375 -7.5625q0.5 -1.5 1.25 -2.0625q0.75 -0.5625 1.0 -1.8125q0.125 -0.375 0 -0.875q-0.125 -0.5 0 -1.0q0.25 -0.75 0.375 -1.6875q0.125 -0.9375 0.375 -1.8125q0.875 -1.75 1.5625 -3.5q0.6875 -1.75 1.6875 -3.125q0.375 -1.375 1.5 -2.5q0.875 -0.875 1.875 -1.625q0.625 -0.25 1.125 -0.25q0.5 0 1.125 -0.25q0.625 -0.25 1.25 -0.6875q0.625 -0.4375 1.25 -0.6875q1.25 -1.75 1.9375 -3.125q0.6875 -1.3749924 1.6875 -2.2499924q1.0 -0.75 1.875 -1.1875q0.875 -0.4375 1.875 -0.9375q1.75 -0.25 2.5 -1.5q1.25 -0.5 2.3125 -0.5625q1.0625 -0.0625 2.3125 -0.4375q1.0 -0.25 1.6875 -0.4375q0.6875 -0.1875 1.4375 -0.3125q0.625 -0.125 1.1875 -0.375q0.5625 -0.25 1.1875 -0.25q1.0 0 1.8125 0.25q0.8125 0.25 1.5625 -0.375q1.375 -0.375 2.5 -0.25q1.125 0.125 2.5 0.125q0.75 0 1.4375 -0.0625q0.6875 -0.0625 1.3125 -0.0625q0.5 0 0.875 0.125q0.375 0.125 0.75 0.25q0.5 0 1.0 -0.0625q0.5 -0.0625 1.125 -0.0625q1.625 0 3.8125 0.3125q2.1875 0.3125 4.1875 0.5625q0.875 0 1.875 0.25q1.0 0.25 2.0 0.125q2.5 0.5 3.9375 1.0q1.4375 0.5 3.1875 0.875q0.625 0.125 1.25 0.125q0.625 0 0.875 0.375q2.5 1.0 5.0 1.8125q2.5 0.8125 4.625 2.1875q0.625 0.375 1.25 0.8749924q0.625 0.5 1.25 0.75q1.0 0.625 2.0 1.125q1.0 0.5 1.375 1.375q1.0 0.25 1.6875 0.875q0.6875 0.625 1.5625 0.875q1.0 1.125 2.1875 2.0625q1.1875 0.9375 1.8125 2.3125q1.0 0.625 1.5 1.375q0.5 0.75 1.125 1.375q1.0 2.5 2.0 4.4375q1.0 1.9375 1.125 4.4375q0.625 1.375 1.3125 3.25q0.6875 1.875 -0.6875 3.25q-0.375 1.0 -0.9375 1.9375q-0.5625 0.9375 -0.9375 1.9375q-0.125 0.625 -0.25 1.6875q-0.125 1.0625 0.125 1.5625q0.375 0.75 1.25 1.5q0.875 0.75 1.375 1.625q0.125 0.375 0.125 0.75q0 0.375 0.25 0.625q-0.5 0.875 -0.8125 2.1875q-0.3125 1.3125 -0.8125 2.5625q-0.125 1.25 -0.0625 1.3125q0.0625 0.0625 0.0625 0.3125q-1.5 2.75 -2.25 4.4375q-0.75 1.6875 -2.0 3.3125q-0.25 0.5 -0.5625 1.0625q-0.3125 0.5625 -0.8125 1.0625q-0.375 0.5 -0.9375 0.8125q-0.5625 0.3125 -0.5625 0.9375zm-80.375 -42.625q0.375 -0.625 0.375 -2.125q0 -1.5 -0.5 -1.75q-0.625 0.25 -1.3125 0.6875q-0.6875 0.4375 -0.9375 1.1875q-0.375 1.25 0.125 2.0q0.375 0.375 1.1875 0.4375q0.8125 0.0625 1.0625 -0.4375zm12.25 -13.25q0.75 -0.75 0.75 -1.6249924q-2.25 -0.25 -2.875 0.8749924q-1.375 0.625 -2.0 1.9375q-0.625 1.3125 -1.75 2.0625q-0.5 0.25 -1.25 0.625q-0.75 0.375 -1.375 1.0q-0.25 0.25 -0.4375 0.6875q-0.1875 0.4375 -0.1875 0.8125q0.125 0.25 0.5625 0.4375q0.4375 0.1875 0.6875 0.1875q0.875 0 1.375 -0.6875q0.5 -0.6875 1.125 -1.3125q0.75 -0.375 1.25 -1.0q0.5 -0.625 1.0 -1.125q0.625 -0.75 1.5 -1.4375q0.875 -0.6875 1.625 -1.4375zm1.75 56.125q0.625 0 1.0625 -0.5q0.4375 -0.5 0.4375 -1.0q0.125 -0.375 -0.125 -0.6875q-0.25 -0.3125 -0.5 -0.5625q-0.5 -0.625 -0.9375 -1.5625q-0.4375 -0.9375 -0.6875 -1.5625q-0.25 -0.75 -0.25 -1.5q0 -0.75 0 -1.4375q0 -0.6875 -0.125 -1.25q-0.125 -0.5625 -0.75 -1.0625q-0.75 0.875 -0.625 1.9375q0.125 1.0625 -0.125 2.4375q-0.25 1.625 -0.125 3.1875q0.125 1.5625 0.75 2.3125q0.25 0.25 1.0625 0.6875q0.8125 0.4375 0.9375 0.5625zm43.375 -18.125q0.25 -1.875 0.3125 -3.6875q0.0625 -1.8125 0.3125 -3.5625q0.25 -1.0 0.75 -1.9375q0.5 -0.9375 0.625 -1.9375q0.25 -1.625 -0.1875 -3.25q-0.4375 -1.625 -0.5625 -3.375q0 -1.75 0.1875 -3.375q0.1875 -1.625 0.3125 -3.375q0 -0.625 -0.1875 -0.875q-0.1875 -0.25 -0.1875 -0.75q-0.25 -0.625 -0.1875 -1.125q0.0625 -0.5 -0.1875 -0.75q-0.125 -0.25 -0.5625 -0.6875q-0.4375 -0.4375 -0.6875 -0.6875q-0.625 -0.625 -1.625 -1.0q-1.0 -0.375 -1.75 -0.625q-0.375 -0.5 -0.9375 -0.875q-0.5625 -0.375 -0.8125 -1.125q-0.25 -0.125 -0.5625 -0.4375q-0.3125 -0.3125 -0.8125 -0.3125q-0.75 -0.125 -1.3125 0.25q-0.5625 0.375 -1.1875 0.5q-1.125 0 -1.25 0.0625q-0.125 0.0625 -0.375 0.0625q-1.75 -0.125 -2.125 -0.25q-0.375 -0.125 -1.0 -0.25q-1.375 -0.25 -2.5625 -0.25q-1.1875 0 -2.0625 -0.75q-0.375 -0.25 -0.625 -0.6875q-0.25 -0.4375 -0.5 -0.6875q-0.375 -0.125 -1.375 -0.375q-1.375 0.125 -2.3125 1.25q-0.9375 1.125 -1.9375 1.375q-1.5 -0.125 -1.9375 -0.0625q-0.4375 0.0625 -1.0625 0.1875q-1.625 0.25 -2.75 0.6875q-1.125 0.4375 -2.375 1.0625q-0.875 1.0 -1.375 2.125q-0.5 1.125 -1.125 2.625q-0.25 1.0 -0.125 1.8125q0.125 0.8125 0.125 1.4375q-0.25 1.375 -0.375 2.9375q-0.125 1.5625 -0.375 2.9375q-0.25 1.0 -0.375 2.0625q-0.125 1.0625 -0.375 2.0625q-0.125 0.5 -0.1875 1.0q-0.0625 0.5 -0.1875 1.0q0 2.125 -0.1875 2.8125q-0.1875 0.6875 -0.4375 1.4375q-0.875 0.875 -1.25 1.9375q-0.375 1.0625 -0.625 2.0625q-0.25 1.875 0.125 3.8125q0.375 1.9375 0.5 3.6875q0.125 1.875 0 3.4375q-0.125 1.5625 0 3.1875q0.25 0.5 0.6875 0.6875q0.4375 0.1875 0.5625 0.6875q0.875 0.625 1.5625 1.125q0.6875 0.5 1.6875 1.0q0.375 0.25 0.6875 0.375q0.3125 0.125 0.6875 0.375q0.75 0.25 1.4375 0.25q0.6875 0 1.3125 0.25q0.375 0 0.6875 0.125q0.3125 0.125 0.6875 0.25q1.375 0.25 2.6875 0.375q1.3125 0.125 2.1875 0.625q2.75 0.25 4.9375 0.375q2.1875 0.125 4.6875 0.375q1.625 0 3.3125 -0.25q1.6875 -0.25 3.1875 -0.625q1.0 -0.25 2.0625 -0.5q1.0625 -0.25 1.8125 -0.75q0.625 -0.25 1.5 -1.1875q0.875 -0.9375 1.375 -1.5625q0.5 -0.625 0.625 -1.5625q0.125 -0.9375 0.375 -1.9375q0.125 -0.75 0.25 -1.4375q0.125 -0.6875 0.25 -1.3125q0.25 -1.5 0.25 -3.1875q0 -1.6875 0.25 -3.3125zm21.75 -25.125q0.25 -1.375 -0.8125 -2.125q-1.0625 -0.75 -1.9375 -1.625q-0.875 0.375 -0.875 1.0625q0 0.6875 0.5625 1.3125q0.5625 0.625 1.375 1.0625q0.8125 0.4375 1.6875 0.3125zm2.0 11.125q0.375 0.5 0.25 1.25q-0.125 0.75 0.375 1.0q0.25 -1.0 0.9375 -1.625q0.6875 -0.625 0.9375 -1.625q0.25 -0.625 0 -1.375q-0.25 -0.75 -0.375 -1.5q-0.625 -2.375 -1.5 -3.125q-0.625 1.875 -0.5625 3.5625q0.0625 1.6875 -0.0625 3.4375zm-79.0 -27.249992q-0.625 1.625 -1.9375 2.4999924q-1.3125 0.875 -3.1875 0.625q-0.25 -1.8749924 1.1875 -2.9374924q1.4375 -1.0625 2.9375 -1.4375q0.625 -0.5 1.1875 -0.875q0.5625 -0.375 1.3125 -0.375q0 0.75 -0.625 1.0625q-0.625 0.3125 -1.125 0.8125l0.25 0.625zm91.375 17.624992q0.25 0.875 0.625 1.9375q0.375 1.0625 0 2.0625q-0.25 0.75 -0.625 1.4375q-0.375 0.6875 -1.125 0.9375q-1.125 -4.25 -2.625 -7.1875q-1.5 -2.9375 -3.0 -5.9375q0.625 -0.75 1.3125 -0.4375q0.6875 0.3125 1.3125 0.9375q0.75 0.75 1.1875 1.4375q0.4375 0.6875 1.0625 1.5625q0.25 0.5 0.5625 0.8125q0.3125 0.3125 0.5625 0.8125q0.25 0.25 0.375 0.75q0.125 0.5 0.375 0.875zm-51.625 -6.375q1.0 -0.25 2.1875 0.1875q1.1875 0.4375 0.9375 1.4375q-0.125 0.625 -1.1875 0.9375q-1.0625 0.3125 -1.6875 0.0625q-0.75 -0.25 -1.125 -1.3125q-0.375 -1.0625 0.875 -1.3125zm11.25 1.75q0.375 0 0.625 0.3125q0.25 0.3125 0.5 0.5625q0.375 0.5 0.875 1.4375q0.5 0.9375 0.75 1.9375q0.25 1.0 0.25 2.0625q0 1.0625 -0.5 1.9375q-1.25 0.375 -2.25 -0.25q-0.75 -1.0 -0.625 -2.5625q0.125 -1.5625 -0.5 -2.5625q-0.625 -1.125 -1.9375 -1.125q-1.3125 0 -2.3125 -0.75q0.125 -0.5 -0.0625 -1.0625q-0.1875 -0.5625 0.3125 -0.8125q1.375 0.25 2.625 0.4375q1.25 0.1875 2.25 0.4375zm36.0 40.125q0.625 2.375 -0.6875 4.0625q-1.3125 1.6875 -2.3125 2.6875q0.25 1.75 -0.5 2.6875q-0.75 0.9375 -1.625 1.8125q-0.625 0.125 -1.6875 0.625q-1.0625 0.5 -1.5625 1.125q-1.125 1.25 -2.0 2.8125q-0.875 1.5625 -2.25 2.5625q-0.75 0.125 -1.75 0.375q-1.0 0.25 -1.875 0q-0.25 -0.125 -0.875 -0.8125q-0.625 -0.6875 -0.5 -0.9375q0 -0.5 0.5 -0.75q0.5 -0.25 0.625 -0.875q0.625 -0.25 1.25 -0.3125q0.625 -0.0625 1.25 -0.4375q1.625 -1.5 2.5625 -1.8125q0.9375 -0.3125 1.6875 -1.0625q0.625 -0.75 1.25 -1.4375q0.625 -0.6875 1.25 -1.3125q1.0 -1.0 1.8125 -1.8125q0.8125 -0.8125 1.6875 -1.8125q0.625 -0.875 1.125 -1.8125q0.5 -0.9375 1.125 -1.9375q0.25 -0.5 0.3125 -0.9375q0.0625 -0.4375 0.3125 -0.6875l0.875 0zm-22.25 19.375q0.625 -0.5 2.125 -0.75q1.5 -0.25 2.0 0.75q0.25 0.25 0.25 0.8125q0 0.5625 -0.375 1.1875q-0.375 0.625 -1.8125 0.8125q-1.4375 0.1875 -2.3125 0.1875q-1.0 -0.25 -0.8125 -1.375q0.1875 -1.125 0.9375 -1.625zm-44.75 1.0q-0.75 1.125 -1.8125 0.8125q-1.0625 -0.3125 -2.0625 -0.5625q-0.375 -0.125 -0.8125 -0.0625q-0.4375 0.0625 -0.8125 -0.0625q-1.0 -0.25 -1.875 -0.8125q-0.875 -0.5625 -1.875 -0.8125q-0.375 -0.125 -0.875 -0.3125q-0.5 -0.1875 -0.875 -0.5q-0.375 -0.3125 -0.4375 -0.6875q-0.0625 -0.375 0.4375 -0.875q0.375 -0.5 1.625 -0.6875q1.25 -0.1875 1.75 0.0625q1.0 0.875 1.125 0.8125q0.125 -0.0625 0.375 0.0625q0.875 1.125 1.0625 1.25q0.1875 0.125 0.3125 0.375q0.75 1.0 1.1875 1.0q0.4375 0 0.8125 0.125q0.625 0.25 1.3125 0.4375q0.6875 0.1875 1.4375 0.4375zm-33.5 -58.5q-0.125 0.375 0.0625 0.875q0.1875 0.5 0.0625 1.125q-0.25 0.875 -0.375 2.125q-0.125 1.25 -0.625 1.875q-0.25 0.25 -1.0625 0.5625q-0.8125 0.3125 -1.4375 0.0625q-0.25 -0.25 -0.5625 -0.8125q-0.3125 -0.5625 -0.3125 -0.8125q0 -0.75 0.375 -1.8125q0.375 -1.0625 0.75 -1.8125q0.75 -1.625 1.5625 -3.1875q0.8125 -1.5625 1.6875 -2.8125q0.625 -0.75 1.25 -1.25q0.625 -0.5 1.25 -1.125q1.0 0 1.1875 1.0q0.1875 1.0 -0.4375 1.75q-1.375 0.875 -2.3125 2.25q-0.9375 1.375 -1.0625 2.0z" fill-rule="nonzero"/></g></svg>